STARTFONT 2.1
COMMENT PCFontBI 0.3.0; see ATTRIBUTION.md and LICENSE
FONT -PCFontBI-PCFontBI-medium-r-normal--16-120-96-96-c-80-iso10646-1
SIZE 12 96 96
FONTBOUNDINGBOX 8 16 0 -2
STARTPROPERTIES 16
FAMILY_NAME "PCFontBI"
WEIGHT_NAME "Medium"
SLANT "R"
SETWIDTH_NAME "Normal"
PIXEL_SIZE 16
POINT_SIZE 120
RESOLUTION_X 96
RESOLUTION_Y 96
SPACING "C"
AVERAGE_WIDTH 80
FONT_ASCENT 14
FONT_DESCENT 2
CHARSET_REGISTRY "ISO10646"
CHARSET_ENCODING "1"
DEFAULT_CHAR 63
COPYRIGHT "IBM VGA design; derivative by keylimesoda; VileR source. CC BY-SA 4.0."
ENDPROPERTIES
CHARS 550
STARTCHAR uni0020
ENCODING 32
SWIDTH 500 0
DWIDTH 8 0
BBX 8 16 0 -2
BITMAP
00
00
00
00
00
00
00
00
00
00
00
00
00
00
00
00
ENDCHAR
STARTCHAR uni0021
ENCODING 33
SWIDTH 500 0
DWIDTH 8 0
BBX 8 16 0 -2
BITMAP
00
00
18
3C
3C
3C
18
18
18
00
18
18
00
00
00
00
ENDCHAR
STARTCHAR uni0022
ENCODING 34
SWIDTH 500 0
DWIDTH 8 0
BBX 8 16 0 -2
BITMAP
00
66
66
66
24
00
00
00
00
00
00
00
00
00
00
00
ENDCHAR
STARTCHAR uni0023
ENCODING 35
SWIDTH 500 0
DWIDTH 8 0
BBX 8 16 0 -2
BITMAP
00
00
00
6C
6C
FE
6C
6C
6C
FE
6C
6C
00
00
00
00
ENDCHAR
STARTCHAR uni0024
ENCODING 36
SWIDTH 500 0
DWIDTH 8 0
BBX 8 16 0 -2
BITMAP
18
18
7C
C6
C2
C0
7C
06
06
86
C6
7C
18
18
00
00
ENDCHAR
STARTCHAR uni0025
ENCODING 37
SWIDTH 500 0
DWIDTH 8 0
BBX 8 16 0 -2
BITMAP
00
00
00
00
C2
C6
0C
18
30
60
C6
86
00
00
00
00
ENDCHAR
STARTCHAR uni0026
ENCODING 38
SWIDTH 500 0
DWIDTH 8 0
BBX 8 16 0 -2
BITMAP
00
00
38
6C
6C
38
76
DC
CC
CC
CC
76
00
00
00
00
ENDCHAR
STARTCHAR uni0027
ENCODING 39
SWIDTH 500 0
DWIDTH 8 0
BBX 8 16 0 -2
BITMAP
00
30
30
30
60
00
00
00
00
00
00
00
00
00
00
00
ENDCHAR
STARTCHAR uni0028
ENCODING 40
SWIDTH 500 0
DWIDTH 8 0
BBX 8 16 0 -2
BITMAP
00
00
0C
18
30
30
30
30
30
30
18
0C
00
00
00
00
ENDCHAR
STARTCHAR uni0029
ENCODING 41
SWIDTH 500 0
DWIDTH 8 0
BBX 8 16 0 -2
BITMAP
00
00
30
18
0C
0C
0C
0C
0C
0C
18
30
00
00
00
00
ENDCHAR
STARTCHAR uni002A
ENCODING 42
SWIDTH 500 0
DWIDTH 8 0
BBX 8 16 0 -2
BITMAP
00
00
00
00
00
66
3C
FF
3C
66
00
00
00
00
00
00
ENDCHAR
STARTCHAR uni002B
ENCODING 43
SWIDTH 500 0
DWIDTH 8 0
BBX 8 16 0 -2
BITMAP
00
00
00
00
00
18
18
7E
18
18
00
00
00
00
00
00
ENDCHAR
STARTCHAR uni002C
ENCODING 44
SWIDTH 500 0
DWIDTH 8 0
BBX 8 16 0 -2
BITMAP
00
00
00
00
00
00
00
00
00
18
18
18
30
00
00
00
ENDCHAR
STARTCHAR uni002D
ENCODING 45
SWIDTH 500 0
DWIDTH 8 0
BBX 8 16 0 -2
BITMAP
00
00
00
00
00
00
00
FE
00
00
00
00
00
00
00
00
ENDCHAR
STARTCHAR uni002E
ENCODING 46
SWIDTH 500 0
DWIDTH 8 0
BBX 8 16 0 -2
BITMAP
00
00
00
00
00
00
00
00
00
00
18
18
00
00
00
00
ENDCHAR
STARTCHAR uni002F
ENCODING 47
SWIDTH 500 0
DWIDTH 8 0
BBX 8 16 0 -2
BITMAP
00
00
00
00
02
06
0C
18
30
60
C0
80
00
00
00
00
ENDCHAR
STARTCHAR uni0030
ENCODING 48
SWIDTH 500 0
DWIDTH 8 0
BBX 8 16 0 -2
BITMAP
00
00
38
6C
C6
C6
D6
D6
C6
C6
6C
38
00
00
00
00
ENDCHAR
STARTCHAR uni0031
ENCODING 49
SWIDTH 500 0
DWIDTH 8 0
BBX 8 16 0 -2
BITMAP
00
00
18
38
78
18
18
18
18
18
18
7E
00
00
00
00
ENDCHAR
STARTCHAR uni0032
ENCODING 50
SWIDTH 500 0
DWIDTH 8 0
BBX 8 16 0 -2
BITMAP
00
00
7C
C6
06
0C
18
30
60
C0
C6
FE
00
00
00
00
ENDCHAR
STARTCHAR uni0033
ENCODING 51
SWIDTH 500 0
DWIDTH 8 0
BBX 8 16 0 -2
BITMAP
00
00
7C
C6
06
06
3C
06
06
06
C6
7C
00
00
00
00
ENDCHAR
STARTCHAR uni0034
ENCODING 52
SWIDTH 500 0
DWIDTH 8 0
BBX 8 16 0 -2
BITMAP
00
00
0C
1C
3C
6C
CC
FE
0C
0C
0C
1E
00
00
00
00
ENDCHAR
STARTCHAR uni0035
ENCODING 53
SWIDTH 500 0
DWIDTH 8 0
BBX 8 16 0 -2
BITMAP
00
00
FE
C0
C0
C0
FC
06
06
06
C6
7C
00
00
00
00
ENDCHAR
STARTCHAR uni0036
ENCODING 54
SWIDTH 500 0
DWIDTH 8 0
BBX 8 16 0 -2
BITMAP
00
00
38
60
C0
C0
FC
C6
C6
C6
C6
7C
00
00
00
00
ENDCHAR
STARTCHAR uni0037
ENCODING 55
SWIDTH 500 0
DWIDTH 8 0
BBX 8 16 0 -2
BITMAP
00
00
FE
C6
06
06
0C
18
30
30
30
30
00
00
00
00
ENDCHAR
STARTCHAR uni0038
ENCODING 56
SWIDTH 500 0
DWIDTH 8 0
BBX 8 16 0 -2
BITMAP
00
00
7C
C6
C6
C6
7C
C6
C6
C6
C6
7C
00
00
00
00
ENDCHAR
STARTCHAR uni0039
ENCODING 57
SWIDTH 500 0
DWIDTH 8 0
BBX 8 16 0 -2
BITMAP
00
00
7C
C6
C6
C6
7E
06
06
06
0C
78
00
00
00
00
ENDCHAR
STARTCHAR uni003A
ENCODING 58
SWIDTH 500 0
DWIDTH 8 0
BBX 8 16 0 -2
BITMAP
00
00
00
00
18
18
00
00
00
18
18
00
00
00
00
00
ENDCHAR
STARTCHAR uni003B
ENCODING 59
SWIDTH 500 0
DWIDTH 8 0
BBX 8 16 0 -2
BITMAP
00
00
00
00
18
18
00
00
00
18
18
30
00
00
00
00
ENDCHAR
STARTCHAR uni003C
ENCODING 60
SWIDTH 500 0
DWIDTH 8 0
BBX 8 16 0 -2
BITMAP
00
00
00
06
0C
18
30
60
30
18
0C
06
00
00
00
00
ENDCHAR
STARTCHAR uni003D
ENCODING 61
SWIDTH 500 0
DWIDTH 8 0
BBX 8 16 0 -2
BITMAP
00
00
00
00
00
7E
00
00
7E
00
00
00
00
00
00
00
ENDCHAR
STARTCHAR uni003E
ENCODING 62
SWIDTH 500 0
DWIDTH 8 0
BBX 8 16 0 -2
BITMAP
00
00
00
60
30
18
0C
06
0C
18
30
60
00
00
00
00
ENDCHAR
STARTCHAR uni003F
ENCODING 63
SWIDTH 500 0
DWIDTH 8 0
BBX 8 16 0 -2
BITMAP
00
00
7C
C6
C6
0C
18
18
18
00
18
18
00
00
00
00
ENDCHAR
STARTCHAR uni0040
ENCODING 64
SWIDTH 500 0
DWIDTH 8 0
BBX 8 16 0 -2
BITMAP
00
00
00
7C
C6
C6
DE
DE
DE
DC
C0
7C
00
00
00
00
ENDCHAR
STARTCHAR uni0041
ENCODING 65
SWIDTH 500 0
DWIDTH 8 0
BBX 8 16 0 -2
BITMAP
00
00
10
38
6C
C6
C6
FE
C6
C6
C6
C6
00
00
00
00
ENDCHAR
STARTCHAR uni0042
ENCODING 66
SWIDTH 500 0
DWIDTH 8 0
BBX 8 16 0 -2
BITMAP
00
00
FC
66
66
66
7C
66
66
66
66
FC
00
00
00
00
ENDCHAR
STARTCHAR uni0043
ENCODING 67
SWIDTH 500 0
DWIDTH 8 0
BBX 8 16 0 -2
BITMAP
00
00
3C
66
C2
C0
C0
C0
C0
C2
66
3C
00
00
00
00
ENDCHAR
STARTCHAR uni0044
ENCODING 68
SWIDTH 500 0
DWIDTH 8 0
BBX 8 16 0 -2
BITMAP
00
00
F8
6C
66
66
66
66
66
66
6C
F8
00
00
00
00
ENDCHAR
STARTCHAR uni0045
ENCODING 69
SWIDTH 500 0
DWIDTH 8 0
BBX 8 16 0 -2
BITMAP
00
00
FE
66
62
68
78
68
60
62
66
FE
00
00
00
00
ENDCHAR
STARTCHAR uni0046
ENCODING 70
SWIDTH 500 0
DWIDTH 8 0
BBX 8 16 0 -2
BITMAP
00
00
FE
66
62
68
78
68
60
60
60
F0
00
00
00
00
ENDCHAR
STARTCHAR uni0047
ENCODING 71
SWIDTH 500 0
DWIDTH 8 0
BBX 8 16 0 -2
BITMAP
00
00
3C
66
C2
C0
C0
DE
C6
C6
66
3A
00
00
00
00
ENDCHAR
STARTCHAR uni0048
ENCODING 72
SWIDTH 500 0
DWIDTH 8 0
BBX 8 16 0 -2
BITMAP
00
00
C6
C6
C6
C6
FE
C6
C6
C6
C6
C6
00
00
00
00
ENDCHAR
STARTCHAR uni0049
ENCODING 73
SWIDTH 500 0
DWIDTH 8 0
BBX 8 16 0 -2
BITMAP
00
00
3C
18
18
18
18
18
18
18
18
3C
00
00
00
00
ENDCHAR
STARTCHAR uni004A
ENCODING 74
SWIDTH 500 0
DWIDTH 8 0
BBX 8 16 0 -2
BITMAP
00
00
1E
0C
0C
0C
0C
0C
CC
CC
CC
78
00
00
00
00
ENDCHAR
STARTCHAR uni004B
ENCODING 75
SWIDTH 500 0
DWIDTH 8 0
BBX 8 16 0 -2
BITMAP
00
00
E6
66
66
6C
78
78
6C
66
66
E6
00
00
00
00
ENDCHAR
STARTCHAR uni004C
ENCODING 76
SWIDTH 500 0
DWIDTH 8 0
BBX 8 16 0 -2
BITMAP
00
00
F0
60
60
60
60
60
60
62
66
FE
00
00
00
00
ENDCHAR
STARTCHAR uni004D
ENCODING 77
SWIDTH 500 0
DWIDTH 8 0
BBX 8 16 0 -2
BITMAP
00
00
C6
EE
FE
FE
D6
C6
C6
C6
C6
C6
00
00
00
00
ENDCHAR
STARTCHAR uni004E
ENCODING 78
SWIDTH 500 0
DWIDTH 8 0
BBX 8 16 0 -2
BITMAP
00
00
C6
E6
F6
FE
DE
CE
C6
C6
C6
C6
00
00
00
00
ENDCHAR
STARTCHAR uni004F
ENCODING 79
SWIDTH 500 0
DWIDTH 8 0
BBX 8 16 0 -2
BITMAP
00
00
7C
C6
C6
C6
C6
C6
C6
C6
C6
7C
00
00
00
00
ENDCHAR
STARTCHAR uni0050
ENCODING 80
SWIDTH 500 0
DWIDTH 8 0
BBX 8 16 0 -2
BITMAP
00
00
FC
66
66
66
7C
60
60
60
60
F0
00
00
00
00
ENDCHAR
STARTCHAR uni0051
ENCODING 81
SWIDTH 500 0
DWIDTH 8 0
BBX 8 16 0 -2
BITMAP
00
00
7C
C6
C6
C6
C6
C6
C6
D6
DE
7C
0C
0E
00
00
ENDCHAR
STARTCHAR uni0052
ENCODING 82
SWIDTH 500 0
DWIDTH 8 0
BBX 8 16 0 -2
BITMAP
00
00
FC
66
66
66
7C
6C
66
66
66
E6
00
00
00
00
ENDCHAR
STARTCHAR uni0053
ENCODING 83
SWIDTH 500 0
DWIDTH 8 0
BBX 8 16 0 -2
BITMAP
00
00
7C
C6
C6
60
38
0C
06
C6
C6
7C
00
00
00
00
ENDCHAR
STARTCHAR uni0054
ENCODING 84
SWIDTH 500 0
DWIDTH 8 0
BBX 8 16 0 -2
BITMAP
00
00
7E
7E
5A
18
18
18
18
18
18
3C
00
00
00
00
ENDCHAR
STARTCHAR uni0055
ENCODING 85
SWIDTH 500 0
DWIDTH 8 0
BBX 8 16 0 -2
BITMAP
00
00
C6
C6
C6
C6
C6
C6
C6
C6
C6
7C
00
00
00
00
ENDCHAR
STARTCHAR uni0056
ENCODING 86
SWIDTH 500 0
DWIDTH 8 0
BBX 8 16 0 -2
BITMAP
00
00
C6
C6
C6
C6
C6
C6
C6
6C
38
10
00
00
00
00
ENDCHAR
STARTCHAR uni0057
ENCODING 87
SWIDTH 500 0
DWIDTH 8 0
BBX 8 16 0 -2
BITMAP
00
00
C6
C6
C6
C6
D6
D6
D6
FE
EE
6C
00
00
00
00
ENDCHAR
STARTCHAR uni0058
ENCODING 88
SWIDTH 500 0
DWIDTH 8 0
BBX 8 16 0 -2
BITMAP
00
00
C6
C6
6C
7C
38
38
7C
6C
C6
C6
00
00
00
00
ENDCHAR
STARTCHAR uni0059
ENCODING 89
SWIDTH 500 0
DWIDTH 8 0
BBX 8 16 0 -2
BITMAP
00
00
66
66
66
66
3C
18
18
18
18
3C
00
00
00
00
ENDCHAR
STARTCHAR uni005A
ENCODING 90
SWIDTH 500 0
DWIDTH 8 0
BBX 8 16 0 -2
BITMAP
00
00
FE
C6
86
0C
18
30
60
C2
C6
FE
00
00
00
00
ENDCHAR
STARTCHAR uni005B
ENCODING 91
SWIDTH 500 0
DWIDTH 8 0
BBX 8 16 0 -2
BITMAP
00
00
3C
30
30
30
30
30
30
30
30
3C
00
00
00
00
ENDCHAR
STARTCHAR uni005C
ENCODING 92
SWIDTH 500 0
DWIDTH 8 0
BBX 8 16 0 -2
BITMAP
00
00
00
80
C0
E0
70
38
1C
0E
06
02
00
00
00
00
ENDCHAR
STARTCHAR uni005D
ENCODING 93
SWIDTH 500 0
DWIDTH 8 0
BBX 8 16 0 -2
BITMAP
00
00
3C
0C
0C
0C
0C
0C
0C
0C
0C
3C
00
00
00
00
ENDCHAR
STARTCHAR uni005E
ENCODING 94
SWIDTH 500 0
DWIDTH 8 0
BBX 8 16 0 -2
BITMAP
10
38
6C
C6
00
00
00
00
00
00
00
00
00
00
00
00
ENDCHAR
STARTCHAR uni005F
ENCODING 95
SWIDTH 500 0
DWIDTH 8 0
BBX 8 16 0 -2
BITMAP
00
00
00
00
00
00
00
00
00
00
00
00
00
FF
00
00
ENDCHAR
STARTCHAR uni0060
ENCODING 96
SWIDTH 500 0
DWIDTH 8 0
BBX 8 16 0 -2
BITMAP
30
30
18
00
00
00
00
00
00
00
00
00
00
00
00
00
ENDCHAR
STARTCHAR uni0061
ENCODING 97
SWIDTH 500 0
DWIDTH 8 0
BBX 8 16 0 -2
BITMAP
00
00
00
00
00
78
0C
7C
CC
CC
CC
76
00
00
00
00
ENDCHAR
STARTCHAR uni0062
ENCODING 98
SWIDTH 500 0
DWIDTH 8 0
BBX 8 16 0 -2
BITMAP
00
00
E0
60
60
78
6C
66
66
66
66
7C
00
00
00
00
ENDCHAR
STARTCHAR uni0063
ENCODING 99
SWIDTH 500 0
DWIDTH 8 0
BBX 8 16 0 -2
BITMAP
00
00
00
00
00
7C
C6
C0
C0
C0
C6
7C
00
00
00
00
ENDCHAR
STARTCHAR uni0064
ENCODING 100
SWIDTH 500 0
DWIDTH 8 0
BBX 8 16 0 -2
BITMAP
00
00
1C
0C
0C
3C
6C
CC
CC
CC
CC
76
00
00
00
00
ENDCHAR
STARTCHAR uni0065
ENCODING 101
SWIDTH 500 0
DWIDTH 8 0
BBX 8 16 0 -2
BITMAP
00
00
00
00
00
7C
C6
FE
C0
C0
C6
7C
00
00
00
00
ENDCHAR
STARTCHAR uni0066
ENCODING 102
SWIDTH 500 0
DWIDTH 8 0
BBX 8 16 0 -2
BITMAP
00
00
38
6C
64
60
F0
60
60
60
60
F0
00
00
00
00
ENDCHAR
STARTCHAR uni0067
ENCODING 103
SWIDTH 500 0
DWIDTH 8 0
BBX 8 16 0 -2
BITMAP
00
00
00
00
00
76
CC
CC
CC
CC
CC
7C
0C
CC
78
00
ENDCHAR
STARTCHAR uni0068
ENCODING 104
SWIDTH 500 0
DWIDTH 8 0
BBX 8 16 0 -2
BITMAP
00
00
E0
60
60
6C
76
66
66
66
66
E6
00
00
00
00
ENDCHAR
STARTCHAR uni0069
ENCODING 105
SWIDTH 500 0
DWIDTH 8 0
BBX 8 16 0 -2
BITMAP
00
00
18
18
00
38
18
18
18
18
18
3C
00
00
00
00
ENDCHAR
STARTCHAR uni006A
ENCODING 106
SWIDTH 500 0
DWIDTH 8 0
BBX 8 16 0 -2
BITMAP
00
00
06
06
00
0E
06
06
06
06
06
06
66
66
3C
00
ENDCHAR
STARTCHAR uni006B
ENCODING 107
SWIDTH 500 0
DWIDTH 8 0
BBX 8 16 0 -2
BITMAP
00
00
E0
60
60
66
6C
78
78
6C
66
E6
00
00
00
00
ENDCHAR
STARTCHAR uni006C
ENCODING 108
SWIDTH 500 0
DWIDTH 8 0
BBX 8 16 0 -2
BITMAP
00
00
38
18
18
18
18
18
18
18
18
3C
00
00
00
00
ENDCHAR
STARTCHAR uni006D
ENCODING 109
SWIDTH 500 0
DWIDTH 8 0
BBX 8 16 0 -2
BITMAP
00
00
00
00
00
EC
FE
D6
D6
D6
D6
C6
00
00
00
00
ENDCHAR
STARTCHAR uni006E
ENCODING 110
SWIDTH 500 0
DWIDTH 8 0
BBX 8 16 0 -2
BITMAP
00
00
00
00
00
DC
66
66
66
66
66
66
00
00
00
00
ENDCHAR
STARTCHAR uni006F
ENCODING 111
SWIDTH 500 0
DWIDTH 8 0
BBX 8 16 0 -2
BITMAP
00
00
00
00
00
7C
C6
C6
C6
C6
C6
7C
00
00
00
00
ENDCHAR
STARTCHAR uni0070
ENCODING 112
SWIDTH 500 0
DWIDTH 8 0
BBX 8 16 0 -2
BITMAP
00
00
00
00
00
DC
66
66
66
66
66
7C
60
60
F0
00
ENDCHAR
STARTCHAR uni0071
ENCODING 113
SWIDTH 500 0
DWIDTH 8 0
BBX 8 16 0 -2
BITMAP
00
00
00
00
00
76
CC
CC
CC
CC
CC
7C
0C
0C
1E
00
ENDCHAR
STARTCHAR uni0072
ENCODING 114
SWIDTH 500 0
DWIDTH 8 0
BBX 8 16 0 -2
BITMAP
00
00
00
00
00
DC
76
66
60
60
60
F0
00
00
00
00
ENDCHAR
STARTCHAR uni0073
ENCODING 115
SWIDTH 500 0
DWIDTH 8 0
BBX 8 16 0 -2
BITMAP
00
00
00
00
00
7C
C6
60
38
0C
C6
7C
00
00
00
00
ENDCHAR
STARTCHAR uni0074
ENCODING 116
SWIDTH 500 0
DWIDTH 8 0
BBX 8 16 0 -2
BITMAP
00
00
10
30
30
FC
30
30
30
30
36
1C
00
00
00
00
ENDCHAR
STARTCHAR uni0075
ENCODING 117
SWIDTH 500 0
DWIDTH 8 0
BBX 8 16 0 -2
BITMAP
00
00
00
00
00
CC
CC
CC
CC
CC
CC
76
00
00
00
00
ENDCHAR
STARTCHAR uni0076
ENCODING 118
SWIDTH 500 0
DWIDTH 8 0
BBX 8 16 0 -2
BITMAP
00
00
00
00
00
66
66
66
66
66
3C
18
00
00
00
00
ENDCHAR
STARTCHAR uni0077
ENCODING 119
SWIDTH 500 0
DWIDTH 8 0
BBX 8 16 0 -2
BITMAP
00
00
00
00
00
C6
C6
D6
D6
D6
FE
6C
00
00
00
00
ENDCHAR
STARTCHAR uni0078
ENCODING 120
SWIDTH 500 0
DWIDTH 8 0
BBX 8 16 0 -2
BITMAP
00
00
00
00
00
C6
6C
38
38
38
6C
C6
00
00
00
00
ENDCHAR
STARTCHAR uni0079
ENCODING 121
SWIDTH 500 0
DWIDTH 8 0
BBX 8 16 0 -2
BITMAP
00
00
00
00
00
C6
C6
C6
C6
C6
C6
7E
06
0C
F8
00
ENDCHAR
STARTCHAR uni007A
ENCODING 122
SWIDTH 500 0
DWIDTH 8 0
BBX 8 16 0 -2
BITMAP
00
00
00
00
00
FE
CC
18
30
60
C6
FE
00
00
00
00
ENDCHAR
STARTCHAR uni007B
ENCODING 123
SWIDTH 500 0
DWIDTH 8 0
BBX 8 16 0 -2
BITMAP
00
00
0E
18
18
18
70
18
18
18
18
0E
00
00
00
00
ENDCHAR
STARTCHAR uni007C
ENCODING 124
SWIDTH 500 0
DWIDTH 8 0
BBX 8 16 0 -2
BITMAP
00
00
18
18
18
18
00
18
18
18
18
18
00
00
00
00
ENDCHAR
STARTCHAR uni007D
ENCODING 125
SWIDTH 500 0
DWIDTH 8 0
BBX 8 16 0 -2
BITMAP
00
00
70
18
18
18
0E
18
18
18
18
70
00
00
00
00
ENDCHAR
STARTCHAR uni007E
ENCODING 126
SWIDTH 500 0
DWIDTH 8 0
BBX 8 16 0 -2
BITMAP
00
00
76
DC
00
00
00
00
00
00
00
00
00
00
00
00
ENDCHAR
STARTCHAR uni00A0
ENCODING 160
SWIDTH 500 0
DWIDTH 8 0
BBX 8 16 0 -2
BITMAP
00
00
00
00
00
00
00
00
00
00
00
00
00
00
00
00
ENDCHAR
STARTCHAR uni00A1
ENCODING 161
SWIDTH 500 0
DWIDTH 8 0
BBX 8 16 0 -2
BITMAP
00
00
18
18
00
18
18
18
3C
3C
3C
18
00
00
00
00
ENDCHAR
STARTCHAR uni00A2
ENCODING 162
SWIDTH 500 0
DWIDTH 8 0
BBX 8 16 0 -2
BITMAP
00
18
18
3C
66
60
60
60
66
3C
18
18
00
00
00
00
ENDCHAR
STARTCHAR uni00A3
ENCODING 163
SWIDTH 500 0
DWIDTH 8 0
BBX 8 16 0 -2
BITMAP
00
38
6C
64
60
F0
60
60
60
60
E6
FC
00
00
00
00
ENDCHAR
STARTCHAR uni00A5
ENCODING 165
SWIDTH 500 0
DWIDTH 8 0
BBX 8 16 0 -2
BITMAP
00
00
66
66
3C
18
7E
18
7E
18
18
18
00
00
00
00
ENDCHAR
STARTCHAR uni00A7
ENCODING 167
SWIDTH 500 0
DWIDTH 8 0
BBX 8 16 0 -2
BITMAP
00
7C
C6
60
38
6C
C6
C6
6C
38
0C
C6
7C
00
00
00
ENDCHAR
STARTCHAR uni00AA
ENCODING 170
SWIDTH 500 0
DWIDTH 8 0
BBX 8 16 0 -2
BITMAP
00
3C
6C
6C
3E
00
7E
00
00
00
00
00
00
00
00
00
ENDCHAR
STARTCHAR uni00AB
ENCODING 171
SWIDTH 500 0
DWIDTH 8 0
BBX 8 16 0 -2
BITMAP
00
00
00
00
00
36
6C
D8
6C
36
00
00
00
00
00
00
ENDCHAR
STARTCHAR uni00AC
ENCODING 172
SWIDTH 500 0
DWIDTH 8 0
BBX 8 16 0 -2
BITMAP
00
00
00
00
00
00
FE
06
06
06
06
00
00
00
00
00
ENDCHAR
STARTCHAR uni00B0
ENCODING 176
SWIDTH 500 0
DWIDTH 8 0
BBX 8 16 0 -2
BITMAP
00
38
6C
6C
38
00
00
00
00
00
00
00
00
00
00
00
ENDCHAR
STARTCHAR uni00B1
ENCODING 177
SWIDTH 500 0
DWIDTH 8 0
BBX 8 16 0 -2
BITMAP
00
00
00
00
18
18
7E
18
18
00
00
FF
00
00
00
00
ENDCHAR
STARTCHAR uni00B2
ENCODING 178
SWIDTH 500 0
DWIDTH 8 0
BBX 8 16 0 -2
BITMAP
00
70
D8
30
60
C8
F8
00
00
00
00
00
00
00
00
00
ENDCHAR
STARTCHAR uni00B5
ENCODING 181
SWIDTH 500 0
DWIDTH 8 0
BBX 8 16 0 -2
BITMAP
00
00
00
00
66
66
66
66
66
7C
60
60
C0
00
00
00
ENDCHAR
STARTCHAR uni00B6
ENCODING 182
SWIDTH 500 0
DWIDTH 8 0
BBX 8 16 0 -2
BITMAP
00
00
7F
DB
DB
DB
7B
1B
1B
1B
1B
1B
00
00
00
00
ENDCHAR
STARTCHAR uni00B7
ENCODING 183
SWIDTH 500 0
DWIDTH 8 0
BBX 8 16 0 -2
BITMAP
00
00
00
00
00
00
00
00
18
00
00
00
00
00
00
00
ENDCHAR
STARTCHAR uni00BA
ENCODING 186
SWIDTH 500 0
DWIDTH 8 0
BBX 8 16 0 -2
BITMAP
00
38
6C
6C
38
00
7C
00
00
00
00
00
00
00
00
00
ENDCHAR
STARTCHAR uni00BB
ENCODING 187
SWIDTH 500 0
DWIDTH 8 0
BBX 8 16 0 -2
BITMAP
00
00
00
00
00
D8
6C
36
6C
D8
00
00
00
00
00
00
ENDCHAR
STARTCHAR uni00BC
ENCODING 188
SWIDTH 500 0
DWIDTH 8 0
BBX 8 16 0 -2
BITMAP
00
C0
C0
C2
C6
CC
18
30
66
CE
9E
3E
06
06
00
00
ENDCHAR
STARTCHAR uni00BD
ENCODING 189
SWIDTH 500 0
DWIDTH 8 0
BBX 8 16 0 -2
BITMAP
00
C0
C0
C2
C6
CC
18
30
60
DC
86
0C
18
3E
00
00
ENDCHAR
STARTCHAR uni00BF
ENCODING 191
SWIDTH 500 0
DWIDTH 8 0
BBX 8 16 0 -2
BITMAP
00
00
30
30
00
30
30
60
C0
C6
C6
7C
00
00
00
00
ENDCHAR
STARTCHAR uni00C4
ENCODING 196
SWIDTH 500 0
DWIDTH 8 0
BBX 8 16 0 -2
BITMAP
00
C6
00
10
38
6C
C6
C6
FE
C6
C6
C6
00
00
00
00
ENDCHAR
STARTCHAR uni00C5
ENCODING 197
SWIDTH 500 0
DWIDTH 8 0
BBX 8 16 0 -2
BITMAP
38
6C
38
00
38
6C
C6
C6
FE
C6
C6
C6
00
00
00
00
ENDCHAR
STARTCHAR uni00C6
ENCODING 198
SWIDTH 500 0
DWIDTH 8 0
BBX 8 16 0 -2
BITMAP
00
00
3E
6C
CC
CC
FE
CC
CC
CC
CC
CE
00
00
00
00
ENDCHAR
STARTCHAR uni00C7
ENCODING 199
SWIDTH 500 0
DWIDTH 8 0
BBX 8 16 0 -2
BITMAP
00
00
3C
66
C2
C0
C0
C0
C2
66
3C
0C
06
7C
00
00
ENDCHAR
STARTCHAR uni00C9
ENCODING 201
SWIDTH 500 0
DWIDTH 8 0
BBX 8 16 0 -2
BITMAP
18
30
60
00
FE
66
60
7C
60
60
66
FE
00
00
00
00
ENDCHAR
STARTCHAR uni00D1
ENCODING 209
SWIDTH 500 0
DWIDTH 8 0
BBX 8 16 0 -2
BITMAP
76
DC
00
C6
E6
F6
FE
DE
CE
C6
C6
C6
00
00
00
00
ENDCHAR
STARTCHAR uni00D6
ENCODING 214
SWIDTH 500 0
DWIDTH 8 0
BBX 8 16 0 -2
BITMAP
00
C6
00
7C
C6
C6
C6
C6
C6
C6
C6
7C
00
00
00
00
ENDCHAR
STARTCHAR uni00DC
ENCODING 220
SWIDTH 500 0
DWIDTH 8 0
BBX 8 16 0 -2
BITMAP
00
C6
00
C6
C6
C6
C6
C6
C6
C6
C6
7C
00
00
00
00
ENDCHAR
STARTCHAR uni00DF
ENCODING 223
SWIDTH 500 0
DWIDTH 8 0
BBX 8 16 0 -2
BITMAP
00
00
78
CC
CC
CC
D8
CC
C6
C6
C6
CC
00
00
00
00
ENDCHAR
STARTCHAR uni00E0
ENCODING 224
SWIDTH 500 0
DWIDTH 8 0
BBX 8 16 0 -2
BITMAP
00
60
30
18
00
78
0C
7C
CC
CC
CC
76
00
00
00
00
ENDCHAR
STARTCHAR uni00E1
ENCODING 225
SWIDTH 500 0
DWIDTH 8 0
BBX 8 16 0 -2
BITMAP
00
18
30
60
00
78
0C
7C
CC
CC
CC
76
00
00
00
00
ENDCHAR
STARTCHAR uni00E2
ENCODING 226
SWIDTH 500 0
DWIDTH 8 0
BBX 8 16 0 -2
BITMAP
00
10
38
6C
00
78
0C
7C
CC
CC
CC
76
00
00
00
00
ENDCHAR
STARTCHAR uni00E4
ENCODING 228
SWIDTH 500 0
DWIDTH 8 0
BBX 8 16 0 -2
BITMAP
00
00
CC
00
00
78
0C
7C
CC
CC
CC
76
00
00
00
00
ENDCHAR
STARTCHAR uni00E5
ENCODING 229
SWIDTH 500 0
DWIDTH 8 0
BBX 8 16 0 -2
BITMAP
00
38
6C
38
00
78
0C
7C
CC
CC
CC
76
00
00
00
00
ENDCHAR
STARTCHAR uni00E6
ENCODING 230
SWIDTH 500 0
DWIDTH 8 0
BBX 8 16 0 -2
BITMAP
00
00
00
00
00
CC
76
36
7E
D8
D8
6E
00
00
00
00
ENDCHAR
STARTCHAR uni00E7
ENCODING 231
SWIDTH 500 0
DWIDTH 8 0
BBX 8 16 0 -2
BITMAP
00
00
00
00
3C
66
60
60
66
3C
0C
06
3C
00
00
00
ENDCHAR
STARTCHAR uni00E8
ENCODING 232
SWIDTH 500 0
DWIDTH 8 0
BBX 8 16 0 -2
BITMAP
00
60
30
18
00
7C
C6
FE
C0
C0
C6
7C
00
00
00
00
ENDCHAR
STARTCHAR uni00E9
ENCODING 233
SWIDTH 500 0
DWIDTH 8 0
BBX 8 16 0 -2
BITMAP
00
0C
18
30
00
7C
C6
FE
C0
C0
C6
7C
00
00
00
00
ENDCHAR
STARTCHAR uni00EA
ENCODING 234
SWIDTH 500 0
DWIDTH 8 0
BBX 8 16 0 -2
BITMAP
00
10
38
6C
00
7C
C6
FE
C0
C0
C6
7C
00
00
00
00
ENDCHAR
STARTCHAR uni00EB
ENCODING 235
SWIDTH 500 0
DWIDTH 8 0
BBX 8 16 0 -2
BITMAP
00
00
C6
00
00
7C
C6
FE
C0
C0
C6
7C
00
00
00
00
ENDCHAR
STARTCHAR uni00EC
ENCODING 236
SWIDTH 500 0
DWIDTH 8 0
BBX 8 16 0 -2
BITMAP
00
60
30
18
00
38
18
18
18
18
18
3C
00
00
00
00
ENDCHAR
STARTCHAR uni00ED
ENCODING 237
SWIDTH 500 0
DWIDTH 8 0
BBX 8 16 0 -2
BITMAP
00
0C
18
30
00
38
18
18
18
18
18
3C
00
00
00
00
ENDCHAR
STARTCHAR uni00EE
ENCODING 238
SWIDTH 500 0
DWIDTH 8 0
BBX 8 16 0 -2
BITMAP
00
18
3C
66
00
38
18
18
18
18
18
3C
00
00
00
00
ENDCHAR
STARTCHAR uni00EF
ENCODING 239
SWIDTH 500 0
DWIDTH 8 0
BBX 8 16 0 -2
BITMAP
00
00
66
00
00
38
18
18
18
18
18
3C
00
00
00
00
ENDCHAR
STARTCHAR uni00F1
ENCODING 241
SWIDTH 500 0
DWIDTH 8 0
BBX 8 16 0 -2
BITMAP
00
00
76
DC
00
DC
66
66
66
66
66
66
00
00
00
00
ENDCHAR
STARTCHAR uni00F2
ENCODING 242
SWIDTH 500 0
DWIDTH 8 0
BBX 8 16 0 -2
BITMAP
00
60
30
18
00
7C
C6
C6
C6
C6
C6
7C
00
00
00
00
ENDCHAR
STARTCHAR uni00F3
ENCODING 243
SWIDTH 500 0
DWIDTH 8 0
BBX 8 16 0 -2
BITMAP
00
18
30
60
00
7C
C6
C6
C6
C6
C6
7C
00
00
00
00
ENDCHAR
STARTCHAR uni00F4
ENCODING 244
SWIDTH 500 0
DWIDTH 8 0
BBX 8 16 0 -2
BITMAP
00
10
38
6C
00
7C
C6
C6
C6
C6
C6
7C
00
00
00
00
ENDCHAR
STARTCHAR uni00F6
ENCODING 246
SWIDTH 500 0
DWIDTH 8 0
BBX 8 16 0 -2
BITMAP
00
00
C6
00
00
7C
C6
C6
C6
C6
C6
7C
00
00
00
00
ENDCHAR
STARTCHAR uni00F7
ENCODING 247
SWIDTH 500 0
DWIDTH 8 0
BBX 8 16 0 -2
BITMAP
00
00
00
00
18
18
00
7E
00
18
18
00
00
00
00
00
ENDCHAR
STARTCHAR uni00F9
ENCODING 249
SWIDTH 500 0
DWIDTH 8 0
BBX 8 16 0 -2
BITMAP
00
60
30
18
00
CC
CC
CC
CC
CC
CC
76
00
00
00
00
ENDCHAR
STARTCHAR uni00FA
ENCODING 250
SWIDTH 500 0
DWIDTH 8 0
BBX 8 16 0 -2
BITMAP
00
18
30
60
00
CC
CC
CC
CC
CC
CC
76
00
00
00
00
ENDCHAR
STARTCHAR uni00FB
ENCODING 251
SWIDTH 500 0
DWIDTH 8 0
BBX 8 16 0 -2
BITMAP
00
30
78
CC
00
CC
CC
CC
CC
CC
CC
76
00
00
00
00
ENDCHAR
STARTCHAR uni00FC
ENCODING 252
SWIDTH 500 0
DWIDTH 8 0
BBX 8 16 0 -2
BITMAP
00
00
CC
00
00
CC
CC
CC
CC
CC
CC
76
00
00
00
00
ENDCHAR
STARTCHAR uni00FF
ENCODING 255
SWIDTH 500 0
DWIDTH 8 0
BBX 8 16 0 -2
BITMAP
00
00
C6
00
00
C6
C6
C6
C6
C6
C6
7E
06
0C
78
00
ENDCHAR
STARTCHAR uni0192
ENCODING 402
SWIDTH 500 0
DWIDTH 8 0
BBX 8 16 0 -2
BITMAP
00
0E
1B
18
18
18
7E
18
18
18
18
18
D8
70
00
00
ENDCHAR
STARTCHAR uni0393
ENCODING 915
SWIDTH 500 0
DWIDTH 8 0
BBX 8 16 0 -2
BITMAP
00
00
FE
C6
C6
C0
C0
C0
C0
C0
C0
C0
00
00
00
00
ENDCHAR
STARTCHAR uni0398
ENCODING 920
SWIDTH 500 0
DWIDTH 8 0
BBX 8 16 0 -2
BITMAP
00
00
00
38
6C
C6
C6
FE
C6
C6
6C
38
00
00
00
00
ENDCHAR
STARTCHAR uni03A3
ENCODING 931
SWIDTH 500 0
DWIDTH 8 0
BBX 8 16 0 -2
BITMAP
00
00
00
FE
C6
60
30
18
30
60
C6
FE
00
00
00
00
ENDCHAR
STARTCHAR uni03A6
ENCODING 934
SWIDTH 500 0
DWIDTH 8 0
BBX 8 16 0 -2
BITMAP
00
00
00
7E
18
3C
66
66
66
3C
18
7E
00
00
00
00
ENDCHAR
STARTCHAR uni03A9
ENCODING 937
SWIDTH 500 0
DWIDTH 8 0
BBX 8 16 0 -2
BITMAP
00
00
38
6C
C6
C6
C6
6C
6C
6C
6C
EE
00
00
00
00
ENDCHAR
STARTCHAR uni03B1
ENCODING 945
SWIDTH 500 0
DWIDTH 8 0
BBX 8 16 0 -2
BITMAP
00
00
00
00
00
76
DC
D8
D8
D8
DC
76
00
00
00
00
ENDCHAR
STARTCHAR uni03B4
ENCODING 948
SWIDTH 500 0
DWIDTH 8 0
BBX 8 16 0 -2
BITMAP
00
00
1E
30
18
0C
3E
66
66
66
66
3C
00
00
00
00
ENDCHAR
STARTCHAR uni03B5
ENCODING 949
SWIDTH 500 0
DWIDTH 8 0
BBX 8 16 0 -2
BITMAP
00
00
1C
30
60
60
7C
60
60
60
30
1C
00
00
00
00
ENDCHAR
STARTCHAR uni03C0
ENCODING 960
SWIDTH 500 0
DWIDTH 8 0
BBX 8 16 0 -2
BITMAP
00
00
00
00
FE
6C
6C
6C
6C
6C
6C
6C
00
00
00
00
ENDCHAR
STARTCHAR uni03C3
ENCODING 963
SWIDTH 500 0
DWIDTH 8 0
BBX 8 16 0 -2
BITMAP
00
00
00
00
00
7E
D8
D8
D8
D8
D8
70
00
00
00
00
ENDCHAR
STARTCHAR uni03C4
ENCODING 964
SWIDTH 500 0
DWIDTH 8 0
BBX 8 16 0 -2
BITMAP
00
00
00
00
76
DC
18
18
18
18
18
18
00
00
00
00
ENDCHAR
STARTCHAR uni03C6
ENCODING 966
SWIDTH 500 0
DWIDTH 8 0
BBX 8 16 0 -2
BITMAP
00
00
00
03
06
7E
DB
DB
F3
7E
60
C0
00
00
00
00
ENDCHAR
STARTCHAR uni2010
ENCODING 8208
SWIDTH 500 0
DWIDTH 8 0
BBX 8 16 0 -2
BITMAP
00
00
00
00
00
00
00
FE
00
00
00
00
00
00
00
00
ENDCHAR
STARTCHAR uni2011
ENCODING 8209
SWIDTH 500 0
DWIDTH 8 0
BBX 8 16 0 -2
BITMAP
00
00
00
00
00
00
00
FE
00
00
00
00
00
00
00
00
ENDCHAR
STARTCHAR uni2012
ENCODING 8210
SWIDTH 500 0
DWIDTH 8 0
BBX 8 16 0 -2
BITMAP
00
00
00
00
00
00
00
FE
00
00
00
00
00
00
00
00
ENDCHAR
STARTCHAR uni2013
ENCODING 8211
SWIDTH 500 0
DWIDTH 8 0
BBX 8 16 0 -2
BITMAP
00
00
00
00
00
00
00
FE
00
00
00
00
00
00
00
00
ENDCHAR
STARTCHAR uni2018
ENCODING 8216
SWIDTH 500 0
DWIDTH 8 0
BBX 8 16 0 -2
BITMAP
00
30
30
30
60
00
00
00
00
00
00
00
00
00
00
00
ENDCHAR
STARTCHAR uni2019
ENCODING 8217
SWIDTH 500 0
DWIDTH 8 0
BBX 8 16 0 -2
BITMAP
00
30
30
30
60
00
00
00
00
00
00
00
00
00
00
00
ENDCHAR
STARTCHAR uni201C
ENCODING 8220
SWIDTH 500 0
DWIDTH 8 0
BBX 8 16 0 -2
BITMAP
00
66
66
66
24
00
00
00
00
00
00
00
00
00
00
00
ENDCHAR
STARTCHAR uni201D
ENCODING 8221
SWIDTH 500 0
DWIDTH 8 0
BBX 8 16 0 -2
BITMAP
00
66
66
66
24
00
00
00
00
00
00
00
00
00
00
00
ENDCHAR
STARTCHAR uni2022
ENCODING 8226
SWIDTH 500 0
DWIDTH 8 0
BBX 8 16 0 -2
BITMAP
00
00
00
00
00
00
18
3C
3C
18
00
00
00
00
00
00
ENDCHAR
STARTCHAR uni203C
ENCODING 8252
SWIDTH 500 0
DWIDTH 8 0
BBX 8 16 0 -2
BITMAP
00
00
66
66
66
66
66
66
66
00
66
66
00
00
00
00
ENDCHAR
STARTCHAR uni207F
ENCODING 8319
SWIDTH 500 0
DWIDTH 8 0
BBX 8 16 0 -2
BITMAP
00
D8
6C
6C
6C
6C
6C
00
00
00
00
00
00
00
00
00
ENDCHAR
STARTCHAR uni20A7
ENCODING 8359
SWIDTH 500 0
DWIDTH 8 0
BBX 8 16 0 -2
BITMAP
00
F8
CC
CC
F8
C4
CC
DE
CC
CC
CC
C6
00
00
00
00
ENDCHAR
STARTCHAR uni2190
ENCODING 8592
SWIDTH 500 0
DWIDTH 8 0
BBX 8 16 0 -2
BITMAP
00
00
00
00
00
30
60
FE
60
30
00
00
00
00
00
00
ENDCHAR
STARTCHAR uni2191
ENCODING 8593
SWIDTH 500 0
DWIDTH 8 0
BBX 8 16 0 -2
BITMAP
00
00
18
3C
7E
18
18
18
18
18
18
18
00
00
00
00
ENDCHAR
STARTCHAR uni2192
ENCODING 8594
SWIDTH 500 0
DWIDTH 8 0
BBX 8 16 0 -2
BITMAP
00
00
00
00
00
18
0C
FE
0C
18
00
00
00
00
00
00
ENDCHAR
STARTCHAR uni2193
ENCODING 8595
SWIDTH 500 0
DWIDTH 8 0
BBX 8 16 0 -2
BITMAP
00
00
18
18
18
18
18
18
18
7E
3C
18
00
00
00
00
ENDCHAR
STARTCHAR uni2194
ENCODING 8596
SWIDTH 500 0
DWIDTH 8 0
BBX 8 16 0 -2
BITMAP
00
00
00
00
00
28
6C
FE
6C
28
00
00
00
00
00
00
ENDCHAR
STARTCHAR uni2195
ENCODING 8597
SWIDTH 500 0
DWIDTH 8 0
BBX 8 16 0 -2
BITMAP
00
00
18
3C
7E
18
18
18
7E
3C
18
00
00
00
00
00
ENDCHAR
STARTCHAR uni21A8
ENCODING 8616
SWIDTH 500 0
DWIDTH 8 0
BBX 8 16 0 -2
BITMAP
00
00
18
3C
7E
18
18
18
7E
3C
18
7E
00
00
00
00
ENDCHAR
STARTCHAR uni2212
ENCODING 8722
SWIDTH 500 0
DWIDTH 8 0
BBX 8 16 0 -2
BITMAP
00
00
00
00
00
00
00
FE
00
00
00
00
00
00
00
00
ENDCHAR
STARTCHAR uni2219
ENCODING 8729
SWIDTH 500 0
DWIDTH 8 0
BBX 8 16 0 -2
BITMAP
00
00
00
00
00
00
00
18
18
00
00
00
00
00
00
00
ENDCHAR
STARTCHAR uni221A
ENCODING 8730
SWIDTH 500 0
DWIDTH 8 0
BBX 8 16 0 -2
BITMAP
00
0F
0C
0C
0C
0C
0C
EC
6C
6C
3C
1C
00
00
00
00
ENDCHAR
STARTCHAR uni221E
ENCODING 8734
SWIDTH 500 0
DWIDTH 8 0
BBX 8 16 0 -2
BITMAP
00
00
00
00
00
7E
DB
DB
DB
7E
00
00
00
00
00
00
ENDCHAR
STARTCHAR uni221F
ENCODING 8735
SWIDTH 500 0
DWIDTH 8 0
BBX 8 16 0 -2
BITMAP
00
00
00
00
00
00
C0
C0
C0
FE
00
00
00
00
00
00
ENDCHAR
STARTCHAR uni2229
ENCODING 8745
SWIDTH 500 0
DWIDTH 8 0
BBX 8 16 0 -2
BITMAP
00
00
00
7C
C6
C6
C6
C6
C6
C6
C6
C6
00
00
00
00
ENDCHAR
STARTCHAR uni2248
ENCODING 8776
SWIDTH 500 0
DWIDTH 8 0
BBX 8 16 0 -2
BITMAP
00
00
00
00
00
76
DC
00
76
DC
00
00
00
00
00
00
ENDCHAR
STARTCHAR uni2261
ENCODING 8801
SWIDTH 500 0
DWIDTH 8 0
BBX 8 16 0 -2
BITMAP
00
00
00
00
FE
00
00
FE
00
00
FE
00
00
00
00
00
ENDCHAR
STARTCHAR uni2264
ENCODING 8804
SWIDTH 500 0
DWIDTH 8 0
BBX 8 16 0 -2
BITMAP
00
00
00
0C
18
30
60
30
18
0C
00
7E
00
00
00
00
ENDCHAR
STARTCHAR uni2265
ENCODING 8805
SWIDTH 500 0
DWIDTH 8 0
BBX 8 16 0 -2
BITMAP
00
00
00
30
18
0C
06
0C
18
30
00
7E
00
00
00
00
ENDCHAR
STARTCHAR uni2302
ENCODING 8962
SWIDTH 500 0
DWIDTH 8 0
BBX 8 16 0 -2
BITMAP
00
00
00
00
10
38
6C
C6
C6
C6
FE
00
00
00
00
00
ENDCHAR
STARTCHAR uni2310
ENCODING 8976
SWIDTH 500 0
DWIDTH 8 0
BBX 8 16 0 -2
BITMAP
00
00
00
00
00
00
FE
C0
C0
C0
C0
00
00
00
00
00
ENDCHAR
STARTCHAR uni2320
ENCODING 8992
SWIDTH 500 0
DWIDTH 8 0
BBX 8 16 0 -2
BITMAP
00
00
0E
1B
1B
18
18
18
18
18
18
18
18
18
18
18
ENDCHAR
STARTCHAR uni2321
ENCODING 8993
SWIDTH 500 0
DWIDTH 8 0
BBX 8 16 0 -2
BITMAP
18
18
18
18
18
18
18
18
D8
D8
D8
70
00
00
00
00
ENDCHAR
STARTCHAR uni2500
ENCODING 9472
SWIDTH 500 0
DWIDTH 8 0
BBX 8 16 0 -2
BITMAP
00
00
00
00
00
00
00
FF
00
00
00
00
00
00
00
00
ENDCHAR
STARTCHAR uni2502
ENCODING 9474
SWIDTH 500 0
DWIDTH 8 0
BBX 8 16 0 -2
BITMAP
18
18
18
18
18
18
18
18
18
18
18
18
18
18
18
18
ENDCHAR
STARTCHAR uni250C
ENCODING 9484
SWIDTH 500 0
DWIDTH 8 0
BBX 8 16 0 -2
BITMAP
00
00
00
00
00
00
00
1F
18
18
18
18
18
18
18
18
ENDCHAR
STARTCHAR uni2510
ENCODING 9488
SWIDTH 500 0
DWIDTH 8 0
BBX 8 16 0 -2
BITMAP
00
00
00
00
00
00
00
F8
18
18
18
18
18
18
18
18
ENDCHAR
STARTCHAR uni2514
ENCODING 9492
SWIDTH 500 0
DWIDTH 8 0
BBX 8 16 0 -2
BITMAP
18
18
18
18
18
18
18
1F
00
00
00
00
00
00
00
00
ENDCHAR
STARTCHAR uni2518
ENCODING 9496
SWIDTH 500 0
DWIDTH 8 0
BBX 8 16 0 -2
BITMAP
18
18
18
18
18
18
18
F8
00
00
00
00
00
00
00
00
ENDCHAR
STARTCHAR uni251C
ENCODING 9500
SWIDTH 500 0
DWIDTH 8 0
BBX 8 16 0 -2
BITMAP
18
18
18
18
18
18
18
1F
18
18
18
18
18
18
18
18
ENDCHAR
STARTCHAR uni2524
ENCODING 9508
SWIDTH 500 0
DWIDTH 8 0
BBX 8 16 0 -2
BITMAP
18
18
18
18
18
18
18
F8
18
18
18
18
18
18
18
18
ENDCHAR
STARTCHAR uni252C
ENCODING 9516
SWIDTH 500 0
DWIDTH 8 0
BBX 8 16 0 -2
BITMAP
00
00
00
00
00
00
00
FF
18
18
18
18
18
18
18
18
ENDCHAR
STARTCHAR uni2534
ENCODING 9524
SWIDTH 500 0
DWIDTH 8 0
BBX 8 16 0 -2
BITMAP
18
18
18
18
18
18
18
FF
00
00
00
00
00
00
00
00
ENDCHAR
STARTCHAR uni253C
ENCODING 9532
SWIDTH 500 0
DWIDTH 8 0
BBX 8 16 0 -2
BITMAP
18
18
18
18
18
18
18
FF
18
18
18
18
18
18
18
18
ENDCHAR
STARTCHAR uni2550
ENCODING 9552
SWIDTH 500 0
DWIDTH 8 0
BBX 8 16 0 -2
BITMAP
00
00
00
00
00
FF
00
FF
00
00
00
00
00
00
00
00
ENDCHAR
STARTCHAR uni2551
ENCODING 9553
SWIDTH 500 0
DWIDTH 8 0
BBX 8 16 0 -2
BITMAP
36
36
36
36
36
36
36
36
36
36
36
36
36
36
36
36
ENDCHAR
STARTCHAR uni2552
ENCODING 9554
SWIDTH 500 0
DWIDTH 8 0
BBX 8 16 0 -2
BITMAP
00
00
00
00
00
1F
18
1F
18
18
18
18
18
18
18
18
ENDCHAR
STARTCHAR uni2553
ENCODING 9555
SWIDTH 500 0
DWIDTH 8 0
BBX 8 16 0 -2
BITMAP
00
00
00
00
00
00
00
3F
36
36
36
36
36
36
36
36
ENDCHAR
STARTCHAR uni2554
ENCODING 9556
SWIDTH 500 0
DWIDTH 8 0
BBX 8 16 0 -2
BITMAP
00
00
00
00
00
3F
30
37
36
36
36
36
36
36
36
36
ENDCHAR
STARTCHAR uni2555
ENCODING 9557
SWIDTH 500 0
DWIDTH 8 0
BBX 8 16 0 -2
BITMAP
00
00
00
00
00
F8
18
F8
18
18
18
18
18
18
18
18
ENDCHAR
STARTCHAR uni2556
ENCODING 9558
SWIDTH 500 0
DWIDTH 8 0
BBX 8 16 0 -2
BITMAP
00
00
00
00
00
00
00
FE
36
36
36
36
36
36
36
36
ENDCHAR
STARTCHAR uni2557
ENCODING 9559
SWIDTH 500 0
DWIDTH 8 0
BBX 8 16 0 -2
BITMAP
00
00
00
00
00
FE
06
F6
36
36
36
36
36
36
36
36
ENDCHAR
STARTCHAR uni2558
ENCODING 9560
SWIDTH 500 0
DWIDTH 8 0
BBX 8 16 0 -2
BITMAP
18
18
18
18
18
1F
18
1F
00
00
00
00
00
00
00
00
ENDCHAR
STARTCHAR uni2559
ENCODING 9561
SWIDTH 500 0
DWIDTH 8 0
BBX 8 16 0 -2
BITMAP
36
36
36
36
36
36
36
3F
00
00
00
00
00
00
00
00
ENDCHAR
STARTCHAR uni255A
ENCODING 9562
SWIDTH 500 0
DWIDTH 8 0
BBX 8 16 0 -2
BITMAP
36
36
36
36
36
37
30
3F
00
00
00
00
00
00
00
00
ENDCHAR
STARTCHAR uni255B
ENCODING 9563
SWIDTH 500 0
DWIDTH 8 0
BBX 8 16 0 -2
BITMAP
18
18
18
18
18
F8
18
F8
00
00
00
00
00
00
00
00
ENDCHAR
STARTCHAR uni255C
ENCODING 9564
SWIDTH 500 0
DWIDTH 8 0
BBX 8 16 0 -2
BITMAP
36
36
36
36
36
36
36
FE
00
00
00
00
00
00
00
00
ENDCHAR
STARTCHAR uni255D
ENCODING 9565
SWIDTH 500 0
DWIDTH 8 0
BBX 8 16 0 -2
BITMAP
36
36
36
36
36
F6
06
FE
00
00
00
00
00
00
00
00
ENDCHAR
STARTCHAR uni255E
ENCODING 9566
SWIDTH 500 0
DWIDTH 8 0
BBX 8 16 0 -2
BITMAP
18
18
18
18
18
1F
18
1F
18
18
18
18
18
18
18
18
ENDCHAR
STARTCHAR uni255F
ENCODING 9567
SWIDTH 500 0
DWIDTH 8 0
BBX 8 16 0 -2
BITMAP
36
36
36
36
36
36
36
37
36
36
36
36
36
36
36
36
ENDCHAR
STARTCHAR uni2560
ENCODING 9568
SWIDTH 500 0
DWIDTH 8 0
BBX 8 16 0 -2
BITMAP
36
36
36
36
36
37
30
37
36
36
36
36
36
36
36
36
ENDCHAR
STARTCHAR uni2561
ENCODING 9569
SWIDTH 500 0
DWIDTH 8 0
BBX 8 16 0 -2
BITMAP
18
18
18
18
18
F8
18
F8
18
18
18
18
18
18
18
18
ENDCHAR
STARTCHAR uni2562
ENCODING 9570
SWIDTH 500 0
DWIDTH 8 0
BBX 8 16 0 -2
BITMAP
36
36
36
36
36
36
36
F6
36
36
36
36
36
36
36
36
ENDCHAR
STARTCHAR uni2563
ENCODING 9571
SWIDTH 500 0
DWIDTH 8 0
BBX 8 16 0 -2
BITMAP
36
36
36
36
36
F6
06
F6
36
36
36
36
36
36
36
36
ENDCHAR
STARTCHAR uni2564
ENCODING 9572
SWIDTH 500 0
DWIDTH 8 0
BBX 8 16 0 -2
BITMAP
00
00
00
00
00
FF
00
FF
18
18
18
18
18
18
18
18
ENDCHAR
STARTCHAR uni2565
ENCODING 9573
SWIDTH 500 0
DWIDTH 8 0
BBX 8 16 0 -2
BITMAP
00
00
00
00
00
00
00
FF
36
36
36
36
36
36
36
36
ENDCHAR
STARTCHAR uni2566
ENCODING 9574
SWIDTH 500 0
DWIDTH 8 0
BBX 8 16 0 -2
BITMAP
00
00
00
00
00
FF
00
F7
36
36
36
36
36
36
36
36
ENDCHAR
STARTCHAR uni2567
ENCODING 9575
SWIDTH 500 0
DWIDTH 8 0
BBX 8 16 0 -2
BITMAP
18
18
18
18
18
FF
00
FF
00
00
00
00
00
00
00
00
ENDCHAR
STARTCHAR uni2568
ENCODING 9576
SWIDTH 500 0
DWIDTH 8 0
BBX 8 16 0 -2
BITMAP
36
36
36
36
36
36
36
FF
00
00
00
00
00
00
00
00
ENDCHAR
STARTCHAR uni2569
ENCODING 9577
SWIDTH 500 0
DWIDTH 8 0
BBX 8 16 0 -2
BITMAP
36
36
36
36
36
F7
00
FF
00
00
00
00
00
00
00
00
ENDCHAR
STARTCHAR uni256A
ENCODING 9578
SWIDTH 500 0
DWIDTH 8 0
BBX 8 16 0 -2
BITMAP
18
18
18
18
18
FF
18
FF
18
18
18
18
18
18
18
18
ENDCHAR
STARTCHAR uni256B
ENCODING 9579
SWIDTH 500 0
DWIDTH 8 0
BBX 8 16 0 -2
BITMAP
36
36
36
36
36
36
36
FF
36
36
36
36
36
36
36
36
ENDCHAR
STARTCHAR uni256C
ENCODING 9580
SWIDTH 500 0
DWIDTH 8 0
BBX 8 16 0 -2
BITMAP
36
36
36
36
36
F7
00
F7
36
36
36
36
36
36
36
36
ENDCHAR
STARTCHAR uni2580
ENCODING 9600
SWIDTH 500 0
DWIDTH 8 0
BBX 8 16 0 -2
BITMAP
FF
FF
FF
FF
FF
FF
FF
00
00
00
00
00
00
00
00
00
ENDCHAR
STARTCHAR uni2581
ENCODING 9601
SWIDTH 500 0
DWIDTH 8 0
BBX 8 16 0 -2
BITMAP
00
00
00
00
00
00
00
00
00
00
00
00
00
00
FF
FF
ENDCHAR
STARTCHAR uni2582
ENCODING 9602
SWIDTH 500 0
DWIDTH 8 0
BBX 8 16 0 -2
BITMAP
00
00
00
00
00
00
00
00
00
00
00
00
FF
FF
FF
FF
ENDCHAR
STARTCHAR uni2583
ENCODING 9603
SWIDTH 500 0
DWIDTH 8 0
BBX 8 16 0 -2
BITMAP
00
00
00
00
00
00
00
00
00
00
FF
FF
FF
FF
FF
FF
ENDCHAR
STARTCHAR uni2584
ENCODING 9604
SWIDTH 500 0
DWIDTH 8 0
BBX 8 16 0 -2
BITMAP
00
00
00
00
00
00
00
FF
FF
FF
FF
FF
FF
FF
FF
FF
ENDCHAR
STARTCHAR uni2585
ENCODING 9605
SWIDTH 500 0
DWIDTH 8 0
BBX 8 16 0 -2
BITMAP
00
00
00
00
00
00
FF
FF
FF
FF
FF
FF
FF
FF
FF
FF
ENDCHAR
STARTCHAR uni2586
ENCODING 9606
SWIDTH 500 0
DWIDTH 8 0
BBX 8 16 0 -2
BITMAP
00
00
00
00
FF
FF
FF
FF
FF
FF
FF
FF
FF
FF
FF
FF
ENDCHAR
STARTCHAR uni2587
ENCODING 9607
SWIDTH 500 0
DWIDTH 8 0
BBX 8 16 0 -2
BITMAP
00
00
FF
FF
FF
FF
FF
FF
FF
FF
FF
FF
FF
FF
FF
FF
ENDCHAR
STARTCHAR uni2588
ENCODING 9608
SWIDTH 500 0
DWIDTH 8 0
BBX 8 16 0 -2
BITMAP
FF
FF
FF
FF
FF
FF
FF
FF
FF
FF
FF
FF
FF
FF
FF
FF
ENDCHAR
STARTCHAR uni2589
ENCODING 9609
SWIDTH 500 0
DWIDTH 8 0
BBX 8 16 0 -2
BITMAP
FE
FE
FE
FE
FE
FE
FE
FE
FE
FE
FE
FE
FE
FE
FE
FE
ENDCHAR
STARTCHAR uni258A
ENCODING 9610
SWIDTH 500 0
DWIDTH 8 0
BBX 8 16 0 -2
BITMAP
FC
FC
FC
FC
FC
FC
FC
FC
FC
FC
FC
FC
FC
FC
FC
FC
ENDCHAR
STARTCHAR uni258B
ENCODING 9611
SWIDTH 500 0
DWIDTH 8 0
BBX 8 16 0 -2
BITMAP
F8
F8
F8
F8
F8
F8
F8
F8
F8
F8
F8
F8
F8
F8
F8
F8
ENDCHAR
STARTCHAR uni258C
ENCODING 9612
SWIDTH 500 0
DWIDTH 8 0
BBX 8 16 0 -2
BITMAP
F0
F0
F0
F0
F0
F0
F0
F0
F0
F0
F0
F0
F0
F0
F0
F0
ENDCHAR
STARTCHAR uni258D
ENCODING 9613
SWIDTH 500 0
DWIDTH 8 0
BBX 8 16 0 -2
BITMAP
E0
E0
E0
E0
E0
E0
E0
E0
E0
E0
E0
E0
E0
E0
E0
E0
ENDCHAR
STARTCHAR uni258E
ENCODING 9614
SWIDTH 500 0
DWIDTH 8 0
BBX 8 16 0 -2
BITMAP
C0
C0
C0
C0
C0
C0
C0
C0
C0
C0
C0
C0
C0
C0
C0
C0
ENDCHAR
STARTCHAR uni258F
ENCODING 9615
SWIDTH 500 0
DWIDTH 8 0
BBX 8 16 0 -2
BITMAP
80
80
80
80
80
80
80
80
80
80
80
80
80
80
80
80
ENDCHAR
STARTCHAR uni2590
ENCODING 9616
SWIDTH 500 0
DWIDTH 8 0
BBX 8 16 0 -2
BITMAP
0F
0F
0F
0F
0F
0F
0F
0F
0F
0F
0F
0F
0F
0F
0F
0F
ENDCHAR
STARTCHAR uni2591
ENCODING 9617
SWIDTH 500 0
DWIDTH 8 0
BBX 8 16 0 -2
BITMAP
11
44
11
44
11
44
11
44
11
44
11
44
11
44
11
44
ENDCHAR
STARTCHAR uni2592
ENCODING 9618
SWIDTH 500 0
DWIDTH 8 0
BBX 8 16 0 -2
BITMAP
55
AA
55
AA
55
AA
55
AA
55
AA
55
AA
55
AA
55
AA
ENDCHAR
STARTCHAR uni2593
ENCODING 9619
SWIDTH 500 0
DWIDTH 8 0
BBX 8 16 0 -2
BITMAP
DD
77
DD
77
DD
77
DD
77
DD
77
DD
77
DD
77
DD
77
ENDCHAR
STARTCHAR uni2594
ENCODING 9620
SWIDTH 500 0
DWIDTH 8 0
BBX 8 16 0 -2
BITMAP
FF
FF
00
00
00
00
00
00
00
00
00
00
00
00
00
00
ENDCHAR
STARTCHAR uni2595
ENCODING 9621
SWIDTH 500 0
DWIDTH 8 0
BBX 8 16 0 -2
BITMAP
01
01
01
01
01
01
01
01
01
01
01
01
01
01
01
01
ENDCHAR
STARTCHAR uni2596
ENCODING 9622
SWIDTH 500 0
DWIDTH 8 0
BBX 8 16 0 -2
BITMAP
00
00
00
00
00
00
00
00
F0
F0
F0
F0
F0
F0
F0
F0
ENDCHAR
STARTCHAR uni2597
ENCODING 9623
SWIDTH 500 0
DWIDTH 8 0
BBX 8 16 0 -2
BITMAP
00
00
00
00
00
00
00
00
0F
0F
0F
0F
0F
0F
0F
0F
ENDCHAR
STARTCHAR uni2598
ENCODING 9624
SWIDTH 500 0
DWIDTH 8 0
BBX 8 16 0 -2
BITMAP
F0
F0
F0
F0
F0
F0
F0
F0
00
00
00
00
00
00
00
00
ENDCHAR
STARTCHAR uni2599
ENCODING 9625
SWIDTH 500 0
DWIDTH 8 0
BBX 8 16 0 -2
BITMAP
F0
F0
F0
F0
F0
F0
F0
F0
FF
FF
FF
FF
FF
FF
FF
FF
ENDCHAR
STARTCHAR uni259A
ENCODING 9626
SWIDTH 500 0
DWIDTH 8 0
BBX 8 16 0 -2
BITMAP
F0
F0
F0
F0
F0
F0
F0
F0
0F
0F
0F
0F
0F
0F
0F
0F
ENDCHAR
STARTCHAR uni259B
ENCODING 9627
SWIDTH 500 0
DWIDTH 8 0
BBX 8 16 0 -2
BITMAP
FF
FF
FF
FF
FF
FF
FF
FF
F0
F0
F0
F0
F0
F0
F0
F0
ENDCHAR
STARTCHAR uni259C
ENCODING 9628
SWIDTH 500 0
DWIDTH 8 0
BBX 8 16 0 -2
BITMAP
FF
FF
FF
FF
FF
FF
FF
FF
0F
0F
0F
0F
0F
0F
0F
0F
ENDCHAR
STARTCHAR uni259D
ENCODING 9629
SWIDTH 500 0
DWIDTH 8 0
BBX 8 16 0 -2
BITMAP
0F
0F
0F
0F
0F
0F
0F
0F
00
00
00
00
00
00
00
00
ENDCHAR
STARTCHAR uni259E
ENCODING 9630
SWIDTH 500 0
DWIDTH 8 0
BBX 8 16 0 -2
BITMAP
0F
0F
0F
0F
0F
0F
0F
0F
F0
F0
F0
F0
F0
F0
F0
F0
ENDCHAR
STARTCHAR uni259F
ENCODING 9631
SWIDTH 500 0
DWIDTH 8 0
BBX 8 16 0 -2
BITMAP
0F
0F
0F
0F
0F
0F
0F
0F
FF
FF
FF
FF
FF
FF
FF
FF
ENDCHAR
STARTCHAR uni25A0
ENCODING 9632
SWIDTH 500 0
DWIDTH 8 0
BBX 8 16 0 -2
BITMAP
00
00
00
00
7C
7C
7C
7C
7C
7C
7C
00
00
00
00
00
ENDCHAR
STARTCHAR uni25AC
ENCODING 9644
SWIDTH 500 0
DWIDTH 8 0
BBX 8 16 0 -2
BITMAP
00
00
00
00
00
00
00
00
FE
FE
FE
FE
00
00
00
00
ENDCHAR
STARTCHAR uni25B2
ENCODING 9650
SWIDTH 500 0
DWIDTH 8 0
BBX 8 16 0 -2
BITMAP
00
00
00
00
10
38
38
7C
7C
FE
FE
00
00
00
00
00
ENDCHAR
STARTCHAR uni25B6
ENCODING 9654
SWIDTH 500 0
DWIDTH 8 0
BBX 8 16 0 -2
BITMAP
00
80
C0
E0
F0
F8
FE
F8
F0
E0
C0
80
00
00
00
00
ENDCHAR
STARTCHAR uni25BA
ENCODING 9658
SWIDTH 500 0
DWIDTH 8 0
BBX 8 16 0 -2
BITMAP
00
80
C0
E0
F0
F8
FE
F8
F0
E0
C0
80
00
00
00
00
ENDCHAR
STARTCHAR uni25BC
ENCODING 9660
SWIDTH 500 0
DWIDTH 8 0
BBX 8 16 0 -2
BITMAP
00
00
00
00
FE
FE
7C
7C
38
38
10
00
00
00
00
00
ENDCHAR
STARTCHAR uni25C0
ENCODING 9664
SWIDTH 500 0
DWIDTH 8 0
BBX 8 16 0 -2
BITMAP
00
02
06
0E
1E
3E
FE
3E
1E
0E
06
02
00
00
00
00
ENDCHAR
STARTCHAR uni25C4
ENCODING 9668
SWIDTH 500 0
DWIDTH 8 0
BBX 8 16 0 -2
BITMAP
00
02
06
0E
1E
3E
FE
3E
1E
0E
06
02
00
00
00
00
ENDCHAR
STARTCHAR uni25CB
ENCODING 9675
SWIDTH 500 0
DWIDTH 8 0
BBX 8 16 0 -2
BITMAP
00
00
00
00
00
3C
66
42
42
66
3C
00
00
00
00
00
ENDCHAR
STARTCHAR uni25D8
ENCODING 9688
SWIDTH 500 0
DWIDTH 8 0
BBX 8 16 0 -2
BITMAP
FF
FF
FF
FF
FF
FF
E7
C3
C3
E7
FF
FF
FF
FF
FF
FF
ENDCHAR
STARTCHAR uni25D9
ENCODING 9689
SWIDTH 500 0
DWIDTH 8 0
BBX 8 16 0 -2
BITMAP
FF
FF
FF
FF
FF
C3
99
BD
BD
99
C3
FF
FF
FF
FF
FF
ENDCHAR
STARTCHAR uni263A
ENCODING 9786
SWIDTH 500 0
DWIDTH 8 0
BBX 8 16 0 -2
BITMAP
00
00
7E
81
A5
81
81
BD
99
81
81
7E
00
00
00
00
ENDCHAR
STARTCHAR uni263B
ENCODING 9787
SWIDTH 500 0
DWIDTH 8 0
BBX 8 16 0 -2
BITMAP
00
00
7E
FF
DB
FF
FF
C3
E7
FF
FF
7E
00
00
00
00
ENDCHAR
STARTCHAR uni263C
ENCODING 9788
SWIDTH 500 0
DWIDTH 8 0
BBX 8 16 0 -2
BITMAP
00
00
00
18
18
DB
3C
E7
3C
DB
18
18
00
00
00
00
ENDCHAR
STARTCHAR uni2640
ENCODING 9792
SWIDTH 500 0
DWIDTH 8 0
BBX 8 16 0 -2
BITMAP
00
00
3C
66
66
66
66
3C
18
7E
18
18
00
00
00
00
ENDCHAR
STARTCHAR uni2642
ENCODING 9794
SWIDTH 500 0
DWIDTH 8 0
BBX 8 16 0 -2
BITMAP
00
00
1E
0E
1A
32
78
CC
CC
CC
CC
78
00
00
00
00
ENDCHAR
STARTCHAR uni2660
ENCODING 9824
SWIDTH 500 0
DWIDTH 8 0
BBX 8 16 0 -2
BITMAP
00
00
00
18
3C
7E
FF
FF
7E
18
18
3C
00
00
00
00
ENDCHAR
STARTCHAR uni2663
ENCODING 9827
SWIDTH 500 0
DWIDTH 8 0
BBX 8 16 0 -2
BITMAP
00
00
00
18
3C
3C
E7
E7
E7
18
18
3C
00
00
00
00
ENDCHAR
STARTCHAR uni2665
ENCODING 9829
SWIDTH 500 0
DWIDTH 8 0
BBX 8 16 0 -2
BITMAP
00
00
00
00
6C
FE
FE
FE
FE
7C
38
10
00
00
00
00
ENDCHAR
STARTCHAR uni2666
ENCODING 9830
SWIDTH 500 0
DWIDTH 8 0
BBX 8 16 0 -2
BITMAP
00
00
00
00
10
38
7C
FE
7C
38
10
00
00
00
00
00
ENDCHAR
STARTCHAR uni266A
ENCODING 9834
SWIDTH 500 0
DWIDTH 8 0
BBX 8 16 0 -2
BITMAP
00
00
3F
33
3F
30
30
30
30
70
F0
E0
00
00
00
00
ENDCHAR
STARTCHAR uni266B
ENCODING 9835
SWIDTH 500 0
DWIDTH 8 0
BBX 8 16 0 -2
BITMAP
00
00
7F
63
7F
63
63
63
63
67
E7
E6
C0
00
00
00
ENDCHAR
STARTCHAR uni2800
ENCODING 10240
SWIDTH 500 0
DWIDTH 8 0
BBX 8 16 0 -2
BITMAP
00
00
00
00
00
00
00
00
00
00
00
00
00
00
00
00
ENDCHAR
STARTCHAR uni2801
ENCODING 10241
SWIDTH 500 0
DWIDTH 8 0
BBX 8 16 0 -2
BITMAP
00
00
20
20
00
00
00
00
00
00
00
00
00
00
00
00
ENDCHAR
STARTCHAR uni2802
ENCODING 10242
SWIDTH 500 0
DWIDTH 8 0
BBX 8 16 0 -2
BITMAP
00
00
00
00
00
20
20
00
00
00
00
00
00
00
00
00
ENDCHAR
STARTCHAR uni2803
ENCODING 10243
SWIDTH 500 0
DWIDTH 8 0
BBX 8 16 0 -2
BITMAP
00
00
20
20
00
20
20
00
00
00
00
00
00
00
00
00
ENDCHAR
STARTCHAR uni2804
ENCODING 10244
SWIDTH 500 0
DWIDTH 8 0
BBX 8 16 0 -2
BITMAP
00
00
00
00
00
00
00
00
20
20
00
00
00
00
00
00
ENDCHAR
STARTCHAR uni2805
ENCODING 10245
SWIDTH 500 0
DWIDTH 8 0
BBX 8 16 0 -2
BITMAP
00
00
20
20
00
00
00
00
20
20
00
00
00
00
00
00
ENDCHAR
STARTCHAR uni2806
ENCODING 10246
SWIDTH 500 0
DWIDTH 8 0
BBX 8 16 0 -2
BITMAP
00
00
00
00
00
20
20
00
20
20
00
00
00
00
00
00
ENDCHAR
STARTCHAR uni2807
ENCODING 10247
SWIDTH 500 0
DWIDTH 8 0
BBX 8 16 0 -2
BITMAP
00
00
20
20
00
20
20
00
20
20
00
00
00
00
00
00
ENDCHAR
STARTCHAR uni2808
ENCODING 10248
SWIDTH 500 0
DWIDTH 8 0
BBX 8 16 0 -2
BITMAP
00
00
04
04
00
00
00
00
00
00
00
00
00
00
00
00
ENDCHAR
STARTCHAR uni2809
ENCODING 10249
SWIDTH 500 0
DWIDTH 8 0
BBX 8 16 0 -2
BITMAP
00
00
24
24
00
00
00
00
00
00
00
00
00
00
00
00
ENDCHAR
STARTCHAR uni280A
ENCODING 10250
SWIDTH 500 0
DWIDTH 8 0
BBX 8 16 0 -2
BITMAP
00
00
04
04
00
20
20
00
00
00
00
00
00
00
00
00
ENDCHAR
STARTCHAR uni280B
ENCODING 10251
SWIDTH 500 0
DWIDTH 8 0
BBX 8 16 0 -2
BITMAP
00
00
24
24
00
20
20
00
00
00
00
00
00
00
00
00
ENDCHAR
STARTCHAR uni280C
ENCODING 10252
SWIDTH 500 0
DWIDTH 8 0
BBX 8 16 0 -2
BITMAP
00
00
04
04
00
00
00
00
20
20
00
00
00
00
00
00
ENDCHAR
STARTCHAR uni280D
ENCODING 10253
SWIDTH 500 0
DWIDTH 8 0
BBX 8 16 0 -2
BITMAP
00
00
24
24
00
00
00
00
20
20
00
00
00
00
00
00
ENDCHAR
STARTCHAR uni280E
ENCODING 10254
SWIDTH 500 0
DWIDTH 8 0
BBX 8 16 0 -2
BITMAP
00
00
04
04
00
20
20
00
20
20
00
00
00
00
00
00
ENDCHAR
STARTCHAR uni280F
ENCODING 10255
SWIDTH 500 0
DWIDTH 8 0
BBX 8 16 0 -2
BITMAP
00
00
24
24
00
20
20
00
20
20
00
00
00
00
00
00
ENDCHAR
STARTCHAR uni2810
ENCODING 10256
SWIDTH 500 0
DWIDTH 8 0
BBX 8 16 0 -2
BITMAP
00
00
00
00
00
04
04
00
00
00
00
00
00
00
00
00
ENDCHAR
STARTCHAR uni2811
ENCODING 10257
SWIDTH 500 0
DWIDTH 8 0
BBX 8 16 0 -2
BITMAP
00
00
20
20
00
04
04
00
00
00
00
00
00
00
00
00
ENDCHAR
STARTCHAR uni2812
ENCODING 10258
SWIDTH 500 0
DWIDTH 8 0
BBX 8 16 0 -2
BITMAP
00
00
00
00
00
24
24
00
00
00
00
00
00
00
00
00
ENDCHAR
STARTCHAR uni2813
ENCODING 10259
SWIDTH 500 0
DWIDTH 8 0
BBX 8 16 0 -2
BITMAP
00
00
20
20
00
24
24
00
00
00
00
00
00
00
00
00
ENDCHAR
STARTCHAR uni2814
ENCODING 10260
SWIDTH 500 0
DWIDTH 8 0
BBX 8 16 0 -2
BITMAP
00
00
00
00
00
04
04
00
20
20
00
00
00
00
00
00
ENDCHAR
STARTCHAR uni2815
ENCODING 10261
SWIDTH 500 0
DWIDTH 8 0
BBX 8 16 0 -2
BITMAP
00
00
20
20
00
04
04
00
20
20
00
00
00
00
00
00
ENDCHAR
STARTCHAR uni2816
ENCODING 10262
SWIDTH 500 0
DWIDTH 8 0
BBX 8 16 0 -2
BITMAP
00
00
00
00
00
24
24
00
20
20
00
00
00
00
00
00
ENDCHAR
STARTCHAR uni2817
ENCODING 10263
SWIDTH 500 0
DWIDTH 8 0
BBX 8 16 0 -2
BITMAP
00
00
20
20
00
24
24
00
20
20
00
00
00
00
00
00
ENDCHAR
STARTCHAR uni2818
ENCODING 10264
SWIDTH 500 0
DWIDTH 8 0
BBX 8 16 0 -2
BITMAP
00
00
04
04
00
04
04
00
00
00
00
00
00
00
00
00
ENDCHAR
STARTCHAR uni2819
ENCODING 10265
SWIDTH 500 0
DWIDTH 8 0
BBX 8 16 0 -2
BITMAP
00
00
24
24
00
04
04
00
00
00
00
00
00
00
00
00
ENDCHAR
STARTCHAR uni281A
ENCODING 10266
SWIDTH 500 0
DWIDTH 8 0
BBX 8 16 0 -2
BITMAP
00
00
04
04
00
24
24
00
00
00
00
00
00
00
00
00
ENDCHAR
STARTCHAR uni281B
ENCODING 10267
SWIDTH 500 0
DWIDTH 8 0
BBX 8 16 0 -2
BITMAP
00
00
24
24
00
24
24
00
00
00
00
00
00
00
00
00
ENDCHAR
STARTCHAR uni281C
ENCODING 10268
SWIDTH 500 0
DWIDTH 8 0
BBX 8 16 0 -2
BITMAP
00
00
04
04
00
04
04
00
20
20
00
00
00
00
00
00
ENDCHAR
STARTCHAR uni281D
ENCODING 10269
SWIDTH 500 0
DWIDTH 8 0
BBX 8 16 0 -2
BITMAP
00
00
24
24
00
04
04
00
20
20
00
00
00
00
00
00
ENDCHAR
STARTCHAR uni281E
ENCODING 10270
SWIDTH 500 0
DWIDTH 8 0
BBX 8 16 0 -2
BITMAP
00
00
04
04
00
24
24
00
20
20
00
00
00
00
00
00
ENDCHAR
STARTCHAR uni281F
ENCODING 10271
SWIDTH 500 0
DWIDTH 8 0
BBX 8 16 0 -2
BITMAP
00
00
24
24
00
24
24
00
20
20
00
00
00
00
00
00
ENDCHAR
STARTCHAR uni2820
ENCODING 10272
SWIDTH 500 0
DWIDTH 8 0
BBX 8 16 0 -2
BITMAP
00
00
00
00
00
00
00
00
04
04
00
00
00
00
00
00
ENDCHAR
STARTCHAR uni2821
ENCODING 10273
SWIDTH 500 0
DWIDTH 8 0
BBX 8 16 0 -2
BITMAP
00
00
20
20
00
00
00
00
04
04
00
00
00
00
00
00
ENDCHAR
STARTCHAR uni2822
ENCODING 10274
SWIDTH 500 0
DWIDTH 8 0
BBX 8 16 0 -2
BITMAP
00
00
00
00
00
20
20
00
04
04
00
00
00
00
00
00
ENDCHAR
STARTCHAR uni2823
ENCODING 10275
SWIDTH 500 0
DWIDTH 8 0
BBX 8 16 0 -2
BITMAP
00
00
20
20
00
20
20
00
04
04
00
00
00
00
00
00
ENDCHAR
STARTCHAR uni2824
ENCODING 10276
SWIDTH 500 0
DWIDTH 8 0
BBX 8 16 0 -2
BITMAP
00
00
00
00
00
00
00
00
24
24
00
00
00
00
00
00
ENDCHAR
STARTCHAR uni2825
ENCODING 10277
SWIDTH 500 0
DWIDTH 8 0
BBX 8 16 0 -2
BITMAP
00
00
20
20
00
00
00
00
24
24
00
00
00
00
00
00
ENDCHAR
STARTCHAR uni2826
ENCODING 10278
SWIDTH 500 0
DWIDTH 8 0
BBX 8 16 0 -2
BITMAP
00
00
00
00
00
20
20
00
24
24
00
00
00
00
00
00
ENDCHAR
STARTCHAR uni2827
ENCODING 10279
SWIDTH 500 0
DWIDTH 8 0
BBX 8 16 0 -2
BITMAP
00
00
20
20
00
20
20
00
24
24
00
00
00
00
00
00
ENDCHAR
STARTCHAR uni2828
ENCODING 10280
SWIDTH 500 0
DWIDTH 8 0
BBX 8 16 0 -2
BITMAP
00
00
04
04
00
00
00
00
04
04
00
00
00
00
00
00
ENDCHAR
STARTCHAR uni2829
ENCODING 10281
SWIDTH 500 0
DWIDTH 8 0
BBX 8 16 0 -2
BITMAP
00
00
24
24
00
00
00
00
04
04
00
00
00
00
00
00
ENDCHAR
STARTCHAR uni282A
ENCODING 10282
SWIDTH 500 0
DWIDTH 8 0
BBX 8 16 0 -2
BITMAP
00
00
04
04
00
20
20
00
04
04
00
00
00
00
00
00
ENDCHAR
STARTCHAR uni282B
ENCODING 10283
SWIDTH 500 0
DWIDTH 8 0
BBX 8 16 0 -2
BITMAP
00
00
24
24
00
20
20
00
04
04
00
00
00
00
00
00
ENDCHAR
STARTCHAR uni282C
ENCODING 10284
SWIDTH 500 0
DWIDTH 8 0
BBX 8 16 0 -2
BITMAP
00
00
04
04
00
00
00
00
24
24
00
00
00
00
00
00
ENDCHAR
STARTCHAR uni282D
ENCODING 10285
SWIDTH 500 0
DWIDTH 8 0
BBX 8 16 0 -2
BITMAP
00
00
24
24
00
00
00
00
24
24
00
00
00
00
00
00
ENDCHAR
STARTCHAR uni282E
ENCODING 10286
SWIDTH 500 0
DWIDTH 8 0
BBX 8 16 0 -2
BITMAP
00
00
04
04
00
20
20
00
24
24
00
00
00
00
00
00
ENDCHAR
STARTCHAR uni282F
ENCODING 10287
SWIDTH 500 0
DWIDTH 8 0
BBX 8 16 0 -2
BITMAP
00
00
24
24
00
20
20
00
24
24
00
00
00
00
00
00
ENDCHAR
STARTCHAR uni2830
ENCODING 10288
SWIDTH 500 0
DWIDTH 8 0
BBX 8 16 0 -2
BITMAP
00
00
00
00
00
04
04
00
04
04
00
00
00
00
00
00
ENDCHAR
STARTCHAR uni2831
ENCODING 10289
SWIDTH 500 0
DWIDTH 8 0
BBX 8 16 0 -2
BITMAP
00
00
20
20
00
04
04
00
04
04
00
00
00
00
00
00
ENDCHAR
STARTCHAR uni2832
ENCODING 10290
SWIDTH 500 0
DWIDTH 8 0
BBX 8 16 0 -2
BITMAP
00
00
00
00
00
24
24
00
04
04
00
00
00
00
00
00
ENDCHAR
STARTCHAR uni2833
ENCODING 10291
SWIDTH 500 0
DWIDTH 8 0
BBX 8 16 0 -2
BITMAP
00
00
20
20
00
24
24
00
04
04
00
00
00
00
00
00
ENDCHAR
STARTCHAR uni2834
ENCODING 10292
SWIDTH 500 0
DWIDTH 8 0
BBX 8 16 0 -2
BITMAP
00
00
00
00
00
04
04
00
24
24
00
00
00
00
00
00
ENDCHAR
STARTCHAR uni2835
ENCODING 10293
SWIDTH 500 0
DWIDTH 8 0
BBX 8 16 0 -2
BITMAP
00
00
20
20
00
04
04
00
24
24
00
00
00
00
00
00
ENDCHAR
STARTCHAR uni2836
ENCODING 10294
SWIDTH 500 0
DWIDTH 8 0
BBX 8 16 0 -2
BITMAP
00
00
00
00
00
24
24
00
24
24
00
00
00
00
00
00
ENDCHAR
STARTCHAR uni2837
ENCODING 10295
SWIDTH 500 0
DWIDTH 8 0
BBX 8 16 0 -2
BITMAP
00
00
20
20
00
24
24
00
24
24
00
00
00
00
00
00
ENDCHAR
STARTCHAR uni2838
ENCODING 10296
SWIDTH 500 0
DWIDTH 8 0
BBX 8 16 0 -2
BITMAP
00
00
04
04
00
04
04
00
04
04
00
00
00
00
00
00
ENDCHAR
STARTCHAR uni2839
ENCODING 10297
SWIDTH 500 0
DWIDTH 8 0
BBX 8 16 0 -2
BITMAP
00
00
24
24
00
04
04
00
04
04
00
00
00
00
00
00
ENDCHAR
STARTCHAR uni283A
ENCODING 10298
SWIDTH 500 0
DWIDTH 8 0
BBX 8 16 0 -2
BITMAP
00
00
04
04
00
24
24
00
04
04
00
00
00
00
00
00
ENDCHAR
STARTCHAR uni283B
ENCODING 10299
SWIDTH 500 0
DWIDTH 8 0
BBX 8 16 0 -2
BITMAP
00
00
24
24
00
24
24
00
04
04
00
00
00
00
00
00
ENDCHAR
STARTCHAR uni283C
ENCODING 10300
SWIDTH 500 0
DWIDTH 8 0
BBX 8 16 0 -2
BITMAP
00
00
04
04
00
04
04
00
24
24
00
00
00
00
00
00
ENDCHAR
STARTCHAR uni283D
ENCODING 10301
SWIDTH 500 0
DWIDTH 8 0
BBX 8 16 0 -2
BITMAP
00
00
24
24
00
04
04
00
24
24
00
00
00
00
00
00
ENDCHAR
STARTCHAR uni283E
ENCODING 10302
SWIDTH 500 0
DWIDTH 8 0
BBX 8 16 0 -2
BITMAP
00
00
04
04
00
24
24
00
24
24
00
00
00
00
00
00
ENDCHAR
STARTCHAR uni283F
ENCODING 10303
SWIDTH 500 0
DWIDTH 8 0
BBX 8 16 0 -2
BITMAP
00
00
24
24
00
24
24
00
24
24
00
00
00
00
00
00
ENDCHAR
STARTCHAR uni2840
ENCODING 10304
SWIDTH 500 0
DWIDTH 8 0
BBX 8 16 0 -2
BITMAP
00
00
00
00
00
00
00
00
00
00
00
20
20
00
00
00
ENDCHAR
STARTCHAR uni2841
ENCODING 10305
SWIDTH 500 0
DWIDTH 8 0
BBX 8 16 0 -2
BITMAP
00
00
20
20
00
00
00
00
00
00
00
20
20
00
00
00
ENDCHAR
STARTCHAR uni2842
ENCODING 10306
SWIDTH 500 0
DWIDTH 8 0
BBX 8 16 0 -2
BITMAP
00
00
00
00
00
20
20
00
00
00
00
20
20
00
00
00
ENDCHAR
STARTCHAR uni2843
ENCODING 10307
SWIDTH 500 0
DWIDTH 8 0
BBX 8 16 0 -2
BITMAP
00
00
20
20
00
20
20
00
00
00
00
20
20
00
00
00
ENDCHAR
STARTCHAR uni2844
ENCODING 10308
SWIDTH 500 0
DWIDTH 8 0
BBX 8 16 0 -2
BITMAP
00
00
00
00
00
00
00
00
20
20
00
20
20
00
00
00
ENDCHAR
STARTCHAR uni2845
ENCODING 10309
SWIDTH 500 0
DWIDTH 8 0
BBX 8 16 0 -2
BITMAP
00
00
20
20
00
00
00
00
20
20
00
20
20
00
00
00
ENDCHAR
STARTCHAR uni2846
ENCODING 10310
SWIDTH 500 0
DWIDTH 8 0
BBX 8 16 0 -2
BITMAP
00
00
00
00
00
20
20
00
20
20
00
20
20
00
00
00
ENDCHAR
STARTCHAR uni2847
ENCODING 10311
SWIDTH 500 0
DWIDTH 8 0
BBX 8 16 0 -2
BITMAP
00
00
20
20
00
20
20
00
20
20
00
20
20
00
00
00
ENDCHAR
STARTCHAR uni2848
ENCODING 10312
SWIDTH 500 0
DWIDTH 8 0
BBX 8 16 0 -2
BITMAP
00
00
04
04
00
00
00
00
00
00
00
20
20
00
00
00
ENDCHAR
STARTCHAR uni2849
ENCODING 10313
SWIDTH 500 0
DWIDTH 8 0
BBX 8 16 0 -2
BITMAP
00
00
24
24
00
00
00
00
00
00
00
20
20
00
00
00
ENDCHAR
STARTCHAR uni284A
ENCODING 10314
SWIDTH 500 0
DWIDTH 8 0
BBX 8 16 0 -2
BITMAP
00
00
04
04
00
20
20
00
00
00
00
20
20
00
00
00
ENDCHAR
STARTCHAR uni284B
ENCODING 10315
SWIDTH 500 0
DWIDTH 8 0
BBX 8 16 0 -2
BITMAP
00
00
24
24
00
20
20
00
00
00
00
20
20
00
00
00
ENDCHAR
STARTCHAR uni284C
ENCODING 10316
SWIDTH 500 0
DWIDTH 8 0
BBX 8 16 0 -2
BITMAP
00
00
04
04
00
00
00
00
20
20
00
20
20
00
00
00
ENDCHAR
STARTCHAR uni284D
ENCODING 10317
SWIDTH 500 0
DWIDTH 8 0
BBX 8 16 0 -2
BITMAP
00
00
24
24
00
00
00
00
20
20
00
20
20
00
00
00
ENDCHAR
STARTCHAR uni284E
ENCODING 10318
SWIDTH 500 0
DWIDTH 8 0
BBX 8 16 0 -2
BITMAP
00
00
04
04
00
20
20
00
20
20
00
20
20
00
00
00
ENDCHAR
STARTCHAR uni284F
ENCODING 10319
SWIDTH 500 0
DWIDTH 8 0
BBX 8 16 0 -2
BITMAP
00
00
24
24
00
20
20
00
20
20
00
20
20
00
00
00
ENDCHAR
STARTCHAR uni2850
ENCODING 10320
SWIDTH 500 0
DWIDTH 8 0
BBX 8 16 0 -2
BITMAP
00
00
00
00
00
04
04
00
00
00
00
20
20
00
00
00
ENDCHAR
STARTCHAR uni2851
ENCODING 10321
SWIDTH 500 0
DWIDTH 8 0
BBX 8 16 0 -2
BITMAP
00
00
20
20
00
04
04
00
00
00
00
20
20
00
00
00
ENDCHAR
STARTCHAR uni2852
ENCODING 10322
SWIDTH 500 0
DWIDTH 8 0
BBX 8 16 0 -2
BITMAP
00
00
00
00
00
24
24
00
00
00
00
20
20
00
00
00
ENDCHAR
STARTCHAR uni2853
ENCODING 10323
SWIDTH 500 0
DWIDTH 8 0
BBX 8 16 0 -2
BITMAP
00
00
20
20
00
24
24
00
00
00
00
20
20
00
00
00
ENDCHAR
STARTCHAR uni2854
ENCODING 10324
SWIDTH 500 0
DWIDTH 8 0
BBX 8 16 0 -2
BITMAP
00
00
00
00
00
04
04
00
20
20
00
20
20
00
00
00
ENDCHAR
STARTCHAR uni2855
ENCODING 10325
SWIDTH 500 0
DWIDTH 8 0
BBX 8 16 0 -2
BITMAP
00
00
20
20
00
04
04
00
20
20
00
20
20
00
00
00
ENDCHAR
STARTCHAR uni2856
ENCODING 10326
SWIDTH 500 0
DWIDTH 8 0
BBX 8 16 0 -2
BITMAP
00
00
00
00
00
24
24
00
20
20
00
20
20
00
00
00
ENDCHAR
STARTCHAR uni2857
ENCODING 10327
SWIDTH 500 0
DWIDTH 8 0
BBX 8 16 0 -2
BITMAP
00
00
20
20
00
24
24
00
20
20
00
20
20
00
00
00
ENDCHAR
STARTCHAR uni2858
ENCODING 10328
SWIDTH 500 0
DWIDTH 8 0
BBX 8 16 0 -2
BITMAP
00
00
04
04
00
04
04
00
00
00
00
20
20
00
00
00
ENDCHAR
STARTCHAR uni2859
ENCODING 10329
SWIDTH 500 0
DWIDTH 8 0
BBX 8 16 0 -2
BITMAP
00
00
24
24
00
04
04
00
00
00
00
20
20
00
00
00
ENDCHAR
STARTCHAR uni285A
ENCODING 10330
SWIDTH 500 0
DWIDTH 8 0
BBX 8 16 0 -2
BITMAP
00
00
04
04
00
24
24
00
00
00
00
20
20
00
00
00
ENDCHAR
STARTCHAR uni285B
ENCODING 10331
SWIDTH 500 0
DWIDTH 8 0
BBX 8 16 0 -2
BITMAP
00
00
24
24
00
24
24
00
00
00
00
20
20
00
00
00
ENDCHAR
STARTCHAR uni285C
ENCODING 10332
SWIDTH 500 0
DWIDTH 8 0
BBX 8 16 0 -2
BITMAP
00
00
04
04
00
04
04
00
20
20
00
20
20
00
00
00
ENDCHAR
STARTCHAR uni285D
ENCODING 10333
SWIDTH 500 0
DWIDTH 8 0
BBX 8 16 0 -2
BITMAP
00
00
24
24
00
04
04
00
20
20
00
20
20
00
00
00
ENDCHAR
STARTCHAR uni285E
ENCODING 10334
SWIDTH 500 0
DWIDTH 8 0
BBX 8 16 0 -2
BITMAP
00
00
04
04
00
24
24
00
20
20
00
20
20
00
00
00
ENDCHAR
STARTCHAR uni285F
ENCODING 10335
SWIDTH 500 0
DWIDTH 8 0
BBX 8 16 0 -2
BITMAP
00
00
24
24
00
24
24
00
20
20
00
20
20
00
00
00
ENDCHAR
STARTCHAR uni2860
ENCODING 10336
SWIDTH 500 0
DWIDTH 8 0
BBX 8 16 0 -2
BITMAP
00
00
00
00
00
00
00
00
04
04
00
20
20
00
00
00
ENDCHAR
STARTCHAR uni2861
ENCODING 10337
SWIDTH 500 0
DWIDTH 8 0
BBX 8 16 0 -2
BITMAP
00
00
20
20
00
00
00
00
04
04
00
20
20
00
00
00
ENDCHAR
STARTCHAR uni2862
ENCODING 10338
SWIDTH 500 0
DWIDTH 8 0
BBX 8 16 0 -2
BITMAP
00
00
00
00
00
20
20
00
04
04
00
20
20
00
00
00
ENDCHAR
STARTCHAR uni2863
ENCODING 10339
SWIDTH 500 0
DWIDTH 8 0
BBX 8 16 0 -2
BITMAP
00
00
20
20
00
20
20
00
04
04
00
20
20
00
00
00
ENDCHAR
STARTCHAR uni2864
ENCODING 10340
SWIDTH 500 0
DWIDTH 8 0
BBX 8 16 0 -2
BITMAP
00
00
00
00
00
00
00
00
24
24
00
20
20
00
00
00
ENDCHAR
STARTCHAR uni2865
ENCODING 10341
SWIDTH 500 0
DWIDTH 8 0
BBX 8 16 0 -2
BITMAP
00
00
20
20
00
00
00
00
24
24
00
20
20
00
00
00
ENDCHAR
STARTCHAR uni2866
ENCODING 10342
SWIDTH 500 0
DWIDTH 8 0
BBX 8 16 0 -2
BITMAP
00
00
00
00
00
20
20
00
24
24
00
20
20
00
00
00
ENDCHAR
STARTCHAR uni2867
ENCODING 10343
SWIDTH 500 0
DWIDTH 8 0
BBX 8 16 0 -2
BITMAP
00
00
20
20
00
20
20
00
24
24
00
20
20
00
00
00
ENDCHAR
STARTCHAR uni2868
ENCODING 10344
SWIDTH 500 0
DWIDTH 8 0
BBX 8 16 0 -2
BITMAP
00
00
04
04
00
00
00
00
04
04
00
20
20
00
00
00
ENDCHAR
STARTCHAR uni2869
ENCODING 10345
SWIDTH 500 0
DWIDTH 8 0
BBX 8 16 0 -2
BITMAP
00
00
24
24
00
00
00
00
04
04
00
20
20
00
00
00
ENDCHAR
STARTCHAR uni286A
ENCODING 10346
SWIDTH 500 0
DWIDTH 8 0
BBX 8 16 0 -2
BITMAP
00
00
04
04
00
20
20
00
04
04
00
20
20
00
00
00
ENDCHAR
STARTCHAR uni286B
ENCODING 10347
SWIDTH 500 0
DWIDTH 8 0
BBX 8 16 0 -2
BITMAP
00
00
24
24
00
20
20
00
04
04
00
20
20
00
00
00
ENDCHAR
STARTCHAR uni286C
ENCODING 10348
SWIDTH 500 0
DWIDTH 8 0
BBX 8 16 0 -2
BITMAP
00
00
04
04
00
00
00
00
24
24
00
20
20
00
00
00
ENDCHAR
STARTCHAR uni286D
ENCODING 10349
SWIDTH 500 0
DWIDTH 8 0
BBX 8 16 0 -2
BITMAP
00
00
24
24
00
00
00
00
24
24
00
20
20
00
00
00
ENDCHAR
STARTCHAR uni286E
ENCODING 10350
SWIDTH 500 0
DWIDTH 8 0
BBX 8 16 0 -2
BITMAP
00
00
04
04
00
20
20
00
24
24
00
20
20
00
00
00
ENDCHAR
STARTCHAR uni286F
ENCODING 10351
SWIDTH 500 0
DWIDTH 8 0
BBX 8 16 0 -2
BITMAP
00
00
24
24
00
20
20
00
24
24
00
20
20
00
00
00
ENDCHAR
STARTCHAR uni2870
ENCODING 10352
SWIDTH 500 0
DWIDTH 8 0
BBX 8 16 0 -2
BITMAP
00
00
00
00
00
04
04
00
04
04
00
20
20
00
00
00
ENDCHAR
STARTCHAR uni2871
ENCODING 10353
SWIDTH 500 0
DWIDTH 8 0
BBX 8 16 0 -2
BITMAP
00
00
20
20
00
04
04
00
04
04
00
20
20
00
00
00
ENDCHAR
STARTCHAR uni2872
ENCODING 10354
SWIDTH 500 0
DWIDTH 8 0
BBX 8 16 0 -2
BITMAP
00
00
00
00
00
24
24
00
04
04
00
20
20
00
00
00
ENDCHAR
STARTCHAR uni2873
ENCODING 10355
SWIDTH 500 0
DWIDTH 8 0
BBX 8 16 0 -2
BITMAP
00
00
20
20
00
24
24
00
04
04
00
20
20
00
00
00
ENDCHAR
STARTCHAR uni2874
ENCODING 10356
SWIDTH 500 0
DWIDTH 8 0
BBX 8 16 0 -2
BITMAP
00
00
00
00
00
04
04
00
24
24
00
20
20
00
00
00
ENDCHAR
STARTCHAR uni2875
ENCODING 10357
SWIDTH 500 0
DWIDTH 8 0
BBX 8 16 0 -2
BITMAP
00
00
20
20
00
04
04
00
24
24
00
20
20
00
00
00
ENDCHAR
STARTCHAR uni2876
ENCODING 10358
SWIDTH 500 0
DWIDTH 8 0
BBX 8 16 0 -2
BITMAP
00
00
00
00
00
24
24
00
24
24
00
20
20
00
00
00
ENDCHAR
STARTCHAR uni2877
ENCODING 10359
SWIDTH 500 0
DWIDTH 8 0
BBX 8 16 0 -2
BITMAP
00
00
20
20
00
24
24
00
24
24
00
20
20
00
00
00
ENDCHAR
STARTCHAR uni2878
ENCODING 10360
SWIDTH 500 0
DWIDTH 8 0
BBX 8 16 0 -2
BITMAP
00
00
04
04
00
04
04
00
04
04
00
20
20
00
00
00
ENDCHAR
STARTCHAR uni2879
ENCODING 10361
SWIDTH 500 0
DWIDTH 8 0
BBX 8 16 0 -2
BITMAP
00
00
24
24
00
04
04
00
04
04
00
20
20
00
00
00
ENDCHAR
STARTCHAR uni287A
ENCODING 10362
SWIDTH 500 0
DWIDTH 8 0
BBX 8 16 0 -2
BITMAP
00
00
04
04
00
24
24
00
04
04
00
20
20
00
00
00
ENDCHAR
STARTCHAR uni287B
ENCODING 10363
SWIDTH 500 0
DWIDTH 8 0
BBX 8 16 0 -2
BITMAP
00
00
24
24
00
24
24
00
04
04
00
20
20
00
00
00
ENDCHAR
STARTCHAR uni287C
ENCODING 10364
SWIDTH 500 0
DWIDTH 8 0
BBX 8 16 0 -2
BITMAP
00
00
04
04
00
04
04
00
24
24
00
20
20
00
00
00
ENDCHAR
STARTCHAR uni287D
ENCODING 10365
SWIDTH 500 0
DWIDTH 8 0
BBX 8 16 0 -2
BITMAP
00
00
24
24
00
04
04
00
24
24
00
20
20
00
00
00
ENDCHAR
STARTCHAR uni287E
ENCODING 10366
SWIDTH 500 0
DWIDTH 8 0
BBX 8 16 0 -2
BITMAP
00
00
04
04
00
24
24
00
24
24
00
20
20
00
00
00
ENDCHAR
STARTCHAR uni287F
ENCODING 10367
SWIDTH 500 0
DWIDTH 8 0
BBX 8 16 0 -2
BITMAP
00
00
24
24
00
24
24
00
24
24
00
20
20
00
00
00
ENDCHAR
STARTCHAR uni2880
ENCODING 10368
SWIDTH 500 0
DWIDTH 8 0
BBX 8 16 0 -2
BITMAP
00
00
00
00
00
00
00
00
00
00
00
04
04
00
00
00
ENDCHAR
STARTCHAR uni2881
ENCODING 10369
SWIDTH 500 0
DWIDTH 8 0
BBX 8 16 0 -2
BITMAP
00
00
20
20
00
00
00
00
00
00
00
04
04
00
00
00
ENDCHAR
STARTCHAR uni2882
ENCODING 10370
SWIDTH 500 0
DWIDTH 8 0
BBX 8 16 0 -2
BITMAP
00
00
00
00
00
20
20
00
00
00
00
04
04
00
00
00
ENDCHAR
STARTCHAR uni2883
ENCODING 10371
SWIDTH 500 0
DWIDTH 8 0
BBX 8 16 0 -2
BITMAP
00
00
20
20
00
20
20
00
00
00
00
04
04
00
00
00
ENDCHAR
STARTCHAR uni2884
ENCODING 10372
SWIDTH 500 0
DWIDTH 8 0
BBX 8 16 0 -2
BITMAP
00
00
00
00
00
00
00
00
20
20
00
04
04
00
00
00
ENDCHAR
STARTCHAR uni2885
ENCODING 10373
SWIDTH 500 0
DWIDTH 8 0
BBX 8 16 0 -2
BITMAP
00
00
20
20
00
00
00
00
20
20
00
04
04
00
00
00
ENDCHAR
STARTCHAR uni2886
ENCODING 10374
SWIDTH 500 0
DWIDTH 8 0
BBX 8 16 0 -2
BITMAP
00
00
00
00
00
20
20
00
20
20
00
04
04
00
00
00
ENDCHAR
STARTCHAR uni2887
ENCODING 10375
SWIDTH 500 0
DWIDTH 8 0
BBX 8 16 0 -2
BITMAP
00
00
20
20
00
20
20
00
20
20
00
04
04
00
00
00
ENDCHAR
STARTCHAR uni2888
ENCODING 10376
SWIDTH 500 0
DWIDTH 8 0
BBX 8 16 0 -2
BITMAP
00
00
04
04
00
00
00
00
00
00
00
04
04
00
00
00
ENDCHAR
STARTCHAR uni2889
ENCODING 10377
SWIDTH 500 0
DWIDTH 8 0
BBX 8 16 0 -2
BITMAP
00
00
24
24
00
00
00
00
00
00
00
04
04
00
00
00
ENDCHAR
STARTCHAR uni288A
ENCODING 10378
SWIDTH 500 0
DWIDTH 8 0
BBX 8 16 0 -2
BITMAP
00
00
04
04
00
20
20
00
00
00
00
04
04
00
00
00
ENDCHAR
STARTCHAR uni288B
ENCODING 10379
SWIDTH 500 0
DWIDTH 8 0
BBX 8 16 0 -2
BITMAP
00
00
24
24
00
20
20
00
00
00
00
04
04
00
00
00
ENDCHAR
STARTCHAR uni288C
ENCODING 10380
SWIDTH 500 0
DWIDTH 8 0
BBX 8 16 0 -2
BITMAP
00
00
04
04
00
00
00
00
20
20
00
04
04
00
00
00
ENDCHAR
STARTCHAR uni288D
ENCODING 10381
SWIDTH 500 0
DWIDTH 8 0
BBX 8 16 0 -2
BITMAP
00
00
24
24
00
00
00
00
20
20
00
04
04
00
00
00
ENDCHAR
STARTCHAR uni288E
ENCODING 10382
SWIDTH 500 0
DWIDTH 8 0
BBX 8 16 0 -2
BITMAP
00
00
04
04
00
20
20
00
20
20
00
04
04
00
00
00
ENDCHAR
STARTCHAR uni288F
ENCODING 10383
SWIDTH 500 0
DWIDTH 8 0
BBX 8 16 0 -2
BITMAP
00
00
24
24
00
20
20
00
20
20
00
04
04
00
00
00
ENDCHAR
STARTCHAR uni2890
ENCODING 10384
SWIDTH 500 0
DWIDTH 8 0
BBX 8 16 0 -2
BITMAP
00
00
00
00
00
04
04
00
00
00
00
04
04
00
00
00
ENDCHAR
STARTCHAR uni2891
ENCODING 10385
SWIDTH 500 0
DWIDTH 8 0
BBX 8 16 0 -2
BITMAP
00
00
20
20
00
04
04
00
00
00
00
04
04
00
00
00
ENDCHAR
STARTCHAR uni2892
ENCODING 10386
SWIDTH 500 0
DWIDTH 8 0
BBX 8 16 0 -2
BITMAP
00
00
00
00
00
24
24
00
00
00
00
04
04
00
00
00
ENDCHAR
STARTCHAR uni2893
ENCODING 10387
SWIDTH 500 0
DWIDTH 8 0
BBX 8 16 0 -2
BITMAP
00
00
20
20
00
24
24
00
00
00
00
04
04
00
00
00
ENDCHAR
STARTCHAR uni2894
ENCODING 10388
SWIDTH 500 0
DWIDTH 8 0
BBX 8 16 0 -2
BITMAP
00
00
00
00
00
04
04
00
20
20
00
04
04
00
00
00
ENDCHAR
STARTCHAR uni2895
ENCODING 10389
SWIDTH 500 0
DWIDTH 8 0
BBX 8 16 0 -2
BITMAP
00
00
20
20
00
04
04
00
20
20
00
04
04
00
00
00
ENDCHAR
STARTCHAR uni2896
ENCODING 10390
SWIDTH 500 0
DWIDTH 8 0
BBX 8 16 0 -2
BITMAP
00
00
00
00
00
24
24
00
20
20
00
04
04
00
00
00
ENDCHAR
STARTCHAR uni2897
ENCODING 10391
SWIDTH 500 0
DWIDTH 8 0
BBX 8 16 0 -2
BITMAP
00
00
20
20
00
24
24
00
20
20
00
04
04
00
00
00
ENDCHAR
STARTCHAR uni2898
ENCODING 10392
SWIDTH 500 0
DWIDTH 8 0
BBX 8 16 0 -2
BITMAP
00
00
04
04
00
04
04
00
00
00
00
04
04
00
00
00
ENDCHAR
STARTCHAR uni2899
ENCODING 10393
SWIDTH 500 0
DWIDTH 8 0
BBX 8 16 0 -2
BITMAP
00
00
24
24
00
04
04
00
00
00
00
04
04
00
00
00
ENDCHAR
STARTCHAR uni289A
ENCODING 10394
SWIDTH 500 0
DWIDTH 8 0
BBX 8 16 0 -2
BITMAP
00
00
04
04
00
24
24
00
00
00
00
04
04
00
00
00
ENDCHAR
STARTCHAR uni289B
ENCODING 10395
SWIDTH 500 0
DWIDTH 8 0
BBX 8 16 0 -2
BITMAP
00
00
24
24
00
24
24
00
00
00
00
04
04
00
00
00
ENDCHAR
STARTCHAR uni289C
ENCODING 10396
SWIDTH 500 0
DWIDTH 8 0
BBX 8 16 0 -2
BITMAP
00
00
04
04
00
04
04
00
20
20
00
04
04
00
00
00
ENDCHAR
STARTCHAR uni289D
ENCODING 10397
SWIDTH 500 0
DWIDTH 8 0
BBX 8 16 0 -2
BITMAP
00
00
24
24
00
04
04
00
20
20
00
04
04
00
00
00
ENDCHAR
STARTCHAR uni289E
ENCODING 10398
SWIDTH 500 0
DWIDTH 8 0
BBX 8 16 0 -2
BITMAP
00
00
04
04
00
24
24
00
20
20
00
04
04
00
00
00
ENDCHAR
STARTCHAR uni289F
ENCODING 10399
SWIDTH 500 0
DWIDTH 8 0
BBX 8 16 0 -2
BITMAP
00
00
24
24
00
24
24
00
20
20
00
04
04
00
00
00
ENDCHAR
STARTCHAR uni28A0
ENCODING 10400
SWIDTH 500 0
DWIDTH 8 0
BBX 8 16 0 -2
BITMAP
00
00
00
00
00
00
00
00
04
04
00
04
04
00
00
00
ENDCHAR
STARTCHAR uni28A1
ENCODING 10401
SWIDTH 500 0
DWIDTH 8 0
BBX 8 16 0 -2
BITMAP
00
00
20
20
00
00
00
00
04
04
00
04
04
00
00
00
ENDCHAR
STARTCHAR uni28A2
ENCODING 10402
SWIDTH 500 0
DWIDTH 8 0
BBX 8 16 0 -2
BITMAP
00
00
00
00
00
20
20
00
04
04
00
04
04
00
00
00
ENDCHAR
STARTCHAR uni28A3
ENCODING 10403
SWIDTH 500 0
DWIDTH 8 0
BBX 8 16 0 -2
BITMAP
00
00
20
20
00
20
20
00
04
04
00
04
04
00
00
00
ENDCHAR
STARTCHAR uni28A4
ENCODING 10404
SWIDTH 500 0
DWIDTH 8 0
BBX 8 16 0 -2
BITMAP
00
00
00
00
00
00
00
00
24
24
00
04
04
00
00
00
ENDCHAR
STARTCHAR uni28A5
ENCODING 10405
SWIDTH 500 0
DWIDTH 8 0
BBX 8 16 0 -2
BITMAP
00
00
20
20
00
00
00
00
24
24
00
04
04
00
00
00
ENDCHAR
STARTCHAR uni28A6
ENCODING 10406
SWIDTH 500 0
DWIDTH 8 0
BBX 8 16 0 -2
BITMAP
00
00
00
00
00
20
20
00
24
24
00
04
04
00
00
00
ENDCHAR
STARTCHAR uni28A7
ENCODING 10407
SWIDTH 500 0
DWIDTH 8 0
BBX 8 16 0 -2
BITMAP
00
00
20
20
00
20
20
00
24
24
00
04
04
00
00
00
ENDCHAR
STARTCHAR uni28A8
ENCODING 10408
SWIDTH 500 0
DWIDTH 8 0
BBX 8 16 0 -2
BITMAP
00
00
04
04
00
00
00
00
04
04
00
04
04
00
00
00
ENDCHAR
STARTCHAR uni28A9
ENCODING 10409
SWIDTH 500 0
DWIDTH 8 0
BBX 8 16 0 -2
BITMAP
00
00
24
24
00
00
00
00
04
04
00
04
04
00
00
00
ENDCHAR
STARTCHAR uni28AA
ENCODING 10410
SWIDTH 500 0
DWIDTH 8 0
BBX 8 16 0 -2
BITMAP
00
00
04
04
00
20
20
00
04
04
00
04
04
00
00
00
ENDCHAR
STARTCHAR uni28AB
ENCODING 10411
SWIDTH 500 0
DWIDTH 8 0
BBX 8 16 0 -2
BITMAP
00
00
24
24
00
20
20
00
04
04
00
04
04
00
00
00
ENDCHAR
STARTCHAR uni28AC
ENCODING 10412
SWIDTH 500 0
DWIDTH 8 0
BBX 8 16 0 -2
BITMAP
00
00
04
04
00
00
00
00
24
24
00
04
04
00
00
00
ENDCHAR
STARTCHAR uni28AD
ENCODING 10413
SWIDTH 500 0
DWIDTH 8 0
BBX 8 16 0 -2
BITMAP
00
00
24
24
00
00
00
00
24
24
00
04
04
00
00
00
ENDCHAR
STARTCHAR uni28AE
ENCODING 10414
SWIDTH 500 0
DWIDTH 8 0
BBX 8 16 0 -2
BITMAP
00
00
04
04
00
20
20
00
24
24
00
04
04
00
00
00
ENDCHAR
STARTCHAR uni28AF
ENCODING 10415
SWIDTH 500 0
DWIDTH 8 0
BBX 8 16 0 -2
BITMAP
00
00
24
24
00
20
20
00
24
24
00
04
04
00
00
00
ENDCHAR
STARTCHAR uni28B0
ENCODING 10416
SWIDTH 500 0
DWIDTH 8 0
BBX 8 16 0 -2
BITMAP
00
00
00
00
00
04
04
00
04
04
00
04
04
00
00
00
ENDCHAR
STARTCHAR uni28B1
ENCODING 10417
SWIDTH 500 0
DWIDTH 8 0
BBX 8 16 0 -2
BITMAP
00
00
20
20
00
04
04
00
04
04
00
04
04
00
00
00
ENDCHAR
STARTCHAR uni28B2
ENCODING 10418
SWIDTH 500 0
DWIDTH 8 0
BBX 8 16 0 -2
BITMAP
00
00
00
00
00
24
24
00
04
04
00
04
04
00
00
00
ENDCHAR
STARTCHAR uni28B3
ENCODING 10419
SWIDTH 500 0
DWIDTH 8 0
BBX 8 16 0 -2
BITMAP
00
00
20
20
00
24
24
00
04
04
00
04
04
00
00
00
ENDCHAR
STARTCHAR uni28B4
ENCODING 10420
SWIDTH 500 0
DWIDTH 8 0
BBX 8 16 0 -2
BITMAP
00
00
00
00
00
04
04
00
24
24
00
04
04
00
00
00
ENDCHAR
STARTCHAR uni28B5
ENCODING 10421
SWIDTH 500 0
DWIDTH 8 0
BBX 8 16 0 -2
BITMAP
00
00
20
20
00
04
04
00
24
24
00
04
04
00
00
00
ENDCHAR
STARTCHAR uni28B6
ENCODING 10422
SWIDTH 500 0
DWIDTH 8 0
BBX 8 16 0 -2
BITMAP
00
00
00
00
00
24
24
00
24
24
00
04
04
00
00
00
ENDCHAR
STARTCHAR uni28B7
ENCODING 10423
SWIDTH 500 0
DWIDTH 8 0
BBX 8 16 0 -2
BITMAP
00
00
20
20
00
24
24
00
24
24
00
04
04
00
00
00
ENDCHAR
STARTCHAR uni28B8
ENCODING 10424
SWIDTH 500 0
DWIDTH 8 0
BBX 8 16 0 -2
BITMAP
00
00
04
04
00
04
04
00
04
04
00
04
04
00
00
00
ENDCHAR
STARTCHAR uni28B9
ENCODING 10425
SWIDTH 500 0
DWIDTH 8 0
BBX 8 16 0 -2
BITMAP
00
00
24
24
00
04
04
00
04
04
00
04
04
00
00
00
ENDCHAR
STARTCHAR uni28BA
ENCODING 10426
SWIDTH 500 0
DWIDTH 8 0
BBX 8 16 0 -2
BITMAP
00
00
04
04
00
24
24
00
04
04
00
04
04
00
00
00
ENDCHAR
STARTCHAR uni28BB
ENCODING 10427
SWIDTH 500 0
DWIDTH 8 0
BBX 8 16 0 -2
BITMAP
00
00
24
24
00
24
24
00
04
04
00
04
04
00
00
00
ENDCHAR
STARTCHAR uni28BC
ENCODING 10428
SWIDTH 500 0
DWIDTH 8 0
BBX 8 16 0 -2
BITMAP
00
00
04
04
00
04
04
00
24
24
00
04
04
00
00
00
ENDCHAR
STARTCHAR uni28BD
ENCODING 10429
SWIDTH 500 0
DWIDTH 8 0
BBX 8 16 0 -2
BITMAP
00
00
24
24
00
04
04
00
24
24
00
04
04
00
00
00
ENDCHAR
STARTCHAR uni28BE
ENCODING 10430
SWIDTH 500 0
DWIDTH 8 0
BBX 8 16 0 -2
BITMAP
00
00
04
04
00
24
24
00
24
24
00
04
04
00
00
00
ENDCHAR
STARTCHAR uni28BF
ENCODING 10431
SWIDTH 500 0
DWIDTH 8 0
BBX 8 16 0 -2
BITMAP
00
00
24
24
00
24
24
00
24
24
00
04
04
00
00
00
ENDCHAR
STARTCHAR uni28C0
ENCODING 10432
SWIDTH 500 0
DWIDTH 8 0
BBX 8 16 0 -2
BITMAP
00
00
00
00
00
00
00
00
00
00
00
24
24
00
00
00
ENDCHAR
STARTCHAR uni28C1
ENCODING 10433
SWIDTH 500 0
DWIDTH 8 0
BBX 8 16 0 -2
BITMAP
00
00
20
20
00
00
00
00
00
00
00
24
24
00
00
00
ENDCHAR
STARTCHAR uni28C2
ENCODING 10434
SWIDTH 500 0
DWIDTH 8 0
BBX 8 16 0 -2
BITMAP
00
00
00
00
00
20
20
00
00
00
00
24
24
00
00
00
ENDCHAR
STARTCHAR uni28C3
ENCODING 10435
SWIDTH 500 0
DWIDTH 8 0
BBX 8 16 0 -2
BITMAP
00
00
20
20
00
20
20
00
00
00
00
24
24
00
00
00
ENDCHAR
STARTCHAR uni28C4
ENCODING 10436
SWIDTH 500 0
DWIDTH 8 0
BBX 8 16 0 -2
BITMAP
00
00
00
00
00
00
00
00
20
20
00
24
24
00
00
00
ENDCHAR
STARTCHAR uni28C5
ENCODING 10437
SWIDTH 500 0
DWIDTH 8 0
BBX 8 16 0 -2
BITMAP
00
00
20
20
00
00
00
00
20
20
00
24
24
00
00
00
ENDCHAR
STARTCHAR uni28C6
ENCODING 10438
SWIDTH 500 0
DWIDTH 8 0
BBX 8 16 0 -2
BITMAP
00
00
00
00
00
20
20
00
20
20
00
24
24
00
00
00
ENDCHAR
STARTCHAR uni28C7
ENCODING 10439
SWIDTH 500 0
DWIDTH 8 0
BBX 8 16 0 -2
BITMAP
00
00
20
20
00
20
20
00
20
20
00
24
24
00
00
00
ENDCHAR
STARTCHAR uni28C8
ENCODING 10440
SWIDTH 500 0
DWIDTH 8 0
BBX 8 16 0 -2
BITMAP
00
00
04
04
00
00
00
00
00
00
00
24
24
00
00
00
ENDCHAR
STARTCHAR uni28C9
ENCODING 10441
SWIDTH 500 0
DWIDTH 8 0
BBX 8 16 0 -2
BITMAP
00
00
24
24
00
00
00
00
00
00
00
24
24
00
00
00
ENDCHAR
STARTCHAR uni28CA
ENCODING 10442
SWIDTH 500 0
DWIDTH 8 0
BBX 8 16 0 -2
BITMAP
00
00
04
04
00
20
20
00
00
00
00
24
24
00
00
00
ENDCHAR
STARTCHAR uni28CB
ENCODING 10443
SWIDTH 500 0
DWIDTH 8 0
BBX 8 16 0 -2
BITMAP
00
00
24
24
00
20
20
00
00
00
00
24
24
00
00
00
ENDCHAR
STARTCHAR uni28CC
ENCODING 10444
SWIDTH 500 0
DWIDTH 8 0
BBX 8 16 0 -2
BITMAP
00
00
04
04
00
00
00
00
20
20
00
24
24
00
00
00
ENDCHAR
STARTCHAR uni28CD
ENCODING 10445
SWIDTH 500 0
DWIDTH 8 0
BBX 8 16 0 -2
BITMAP
00
00
24
24
00
00
00
00
20
20
00
24
24
00
00
00
ENDCHAR
STARTCHAR uni28CE
ENCODING 10446
SWIDTH 500 0
DWIDTH 8 0
BBX 8 16 0 -2
BITMAP
00
00
04
04
00
20
20
00
20
20
00
24
24
00
00
00
ENDCHAR
STARTCHAR uni28CF
ENCODING 10447
SWIDTH 500 0
DWIDTH 8 0
BBX 8 16 0 -2
BITMAP
00
00
24
24
00
20
20
00
20
20
00
24
24
00
00
00
ENDCHAR
STARTCHAR uni28D0
ENCODING 10448
SWIDTH 500 0
DWIDTH 8 0
BBX 8 16 0 -2
BITMAP
00
00
00
00
00
04
04
00
00
00
00
24
24
00
00
00
ENDCHAR
STARTCHAR uni28D1
ENCODING 10449
SWIDTH 500 0
DWIDTH 8 0
BBX 8 16 0 -2
BITMAP
00
00
20
20
00
04
04
00
00
00
00
24
24
00
00
00
ENDCHAR
STARTCHAR uni28D2
ENCODING 10450
SWIDTH 500 0
DWIDTH 8 0
BBX 8 16 0 -2
BITMAP
00
00
00
00
00
24
24
00
00
00
00
24
24
00
00
00
ENDCHAR
STARTCHAR uni28D3
ENCODING 10451
SWIDTH 500 0
DWIDTH 8 0
BBX 8 16 0 -2
BITMAP
00
00
20
20
00
24
24
00
00
00
00
24
24
00
00
00
ENDCHAR
STARTCHAR uni28D4
ENCODING 10452
SWIDTH 500 0
DWIDTH 8 0
BBX 8 16 0 -2
BITMAP
00
00
00
00
00
04
04
00
20
20
00
24
24
00
00
00
ENDCHAR
STARTCHAR uni28D5
ENCODING 10453
SWIDTH 500 0
DWIDTH 8 0
BBX 8 16 0 -2
BITMAP
00
00
20
20
00
04
04
00
20
20
00
24
24
00
00
00
ENDCHAR
STARTCHAR uni28D6
ENCODING 10454
SWIDTH 500 0
DWIDTH 8 0
BBX 8 16 0 -2
BITMAP
00
00
00
00
00
24
24
00
20
20
00
24
24
00
00
00
ENDCHAR
STARTCHAR uni28D7
ENCODING 10455
SWIDTH 500 0
DWIDTH 8 0
BBX 8 16 0 -2
BITMAP
00
00
20
20
00
24
24
00
20
20
00
24
24
00
00
00
ENDCHAR
STARTCHAR uni28D8
ENCODING 10456
SWIDTH 500 0
DWIDTH 8 0
BBX 8 16 0 -2
BITMAP
00
00
04
04
00
04
04
00
00
00
00
24
24
00
00
00
ENDCHAR
STARTCHAR uni28D9
ENCODING 10457
SWIDTH 500 0
DWIDTH 8 0
BBX 8 16 0 -2
BITMAP
00
00
24
24
00
04
04
00
00
00
00
24
24
00
00
00
ENDCHAR
STARTCHAR uni28DA
ENCODING 10458
SWIDTH 500 0
DWIDTH 8 0
BBX 8 16 0 -2
BITMAP
00
00
04
04
00
24
24
00
00
00
00
24
24
00
00
00
ENDCHAR
STARTCHAR uni28DB
ENCODING 10459
SWIDTH 500 0
DWIDTH 8 0
BBX 8 16 0 -2
BITMAP
00
00
24
24
00
24
24
00
00
00
00
24
24
00
00
00
ENDCHAR
STARTCHAR uni28DC
ENCODING 10460
SWIDTH 500 0
DWIDTH 8 0
BBX 8 16 0 -2
BITMAP
00
00
04
04
00
04
04
00
20
20
00
24
24
00
00
00
ENDCHAR
STARTCHAR uni28DD
ENCODING 10461
SWIDTH 500 0
DWIDTH 8 0
BBX 8 16 0 -2
BITMAP
00
00
24
24
00
04
04
00
20
20
00
24
24
00
00
00
ENDCHAR
STARTCHAR uni28DE
ENCODING 10462
SWIDTH 500 0
DWIDTH 8 0
BBX 8 16 0 -2
BITMAP
00
00
04
04
00
24
24
00
20
20
00
24
24
00
00
00
ENDCHAR
STARTCHAR uni28DF
ENCODING 10463
SWIDTH 500 0
DWIDTH 8 0
BBX 8 16 0 -2
BITMAP
00
00
24
24
00
24
24
00
20
20
00
24
24
00
00
00
ENDCHAR
STARTCHAR uni28E0
ENCODING 10464
SWIDTH 500 0
DWIDTH 8 0
BBX 8 16 0 -2
BITMAP
00
00
00
00
00
00
00
00
04
04
00
24
24
00
00
00
ENDCHAR
STARTCHAR uni28E1
ENCODING 10465
SWIDTH 500 0
DWIDTH 8 0
BBX 8 16 0 -2
BITMAP
00
00
20
20
00
00
00
00
04
04
00
24
24
00
00
00
ENDCHAR
STARTCHAR uni28E2
ENCODING 10466
SWIDTH 500 0
DWIDTH 8 0
BBX 8 16 0 -2
BITMAP
00
00
00
00
00
20
20
00
04
04
00
24
24
00
00
00
ENDCHAR
STARTCHAR uni28E3
ENCODING 10467
SWIDTH 500 0
DWIDTH 8 0
BBX 8 16 0 -2
BITMAP
00
00
20
20
00
20
20
00
04
04
00
24
24
00
00
00
ENDCHAR
STARTCHAR uni28E4
ENCODING 10468
SWIDTH 500 0
DWIDTH 8 0
BBX 8 16 0 -2
BITMAP
00
00
00
00
00
00
00
00
24
24
00
24
24
00
00
00
ENDCHAR
STARTCHAR uni28E5
ENCODING 10469
SWIDTH 500 0
DWIDTH 8 0
BBX 8 16 0 -2
BITMAP
00
00
20
20
00
00
00
00
24
24
00
24
24
00
00
00
ENDCHAR
STARTCHAR uni28E6
ENCODING 10470
SWIDTH 500 0
DWIDTH 8 0
BBX 8 16 0 -2
BITMAP
00
00
00
00
00
20
20
00
24
24
00
24
24
00
00
00
ENDCHAR
STARTCHAR uni28E7
ENCODING 10471
SWIDTH 500 0
DWIDTH 8 0
BBX 8 16 0 -2
BITMAP
00
00
20
20
00
20
20
00
24
24
00
24
24
00
00
00
ENDCHAR
STARTCHAR uni28E8
ENCODING 10472
SWIDTH 500 0
DWIDTH 8 0
BBX 8 16 0 -2
BITMAP
00
00
04
04
00
00
00
00
04
04
00
24
24
00
00
00
ENDCHAR
STARTCHAR uni28E9
ENCODING 10473
SWIDTH 500 0
DWIDTH 8 0
BBX 8 16 0 -2
BITMAP
00
00
24
24
00
00
00
00
04
04
00
24
24
00
00
00
ENDCHAR
STARTCHAR uni28EA
ENCODING 10474
SWIDTH 500 0
DWIDTH 8 0
BBX 8 16 0 -2
BITMAP
00
00
04
04
00
20
20
00
04
04
00
24
24
00
00
00
ENDCHAR
STARTCHAR uni28EB
ENCODING 10475
SWIDTH 500 0
DWIDTH 8 0
BBX 8 16 0 -2
BITMAP
00
00
24
24
00
20
20
00
04
04
00
24
24
00
00
00
ENDCHAR
STARTCHAR uni28EC
ENCODING 10476
SWIDTH 500 0
DWIDTH 8 0
BBX 8 16 0 -2
BITMAP
00
00
04
04
00
00
00
00
24
24
00
24
24
00
00
00
ENDCHAR
STARTCHAR uni28ED
ENCODING 10477
SWIDTH 500 0
DWIDTH 8 0
BBX 8 16 0 -2
BITMAP
00
00
24
24
00
00
00
00
24
24
00
24
24
00
00
00
ENDCHAR
STARTCHAR uni28EE
ENCODING 10478
SWIDTH 500 0
DWIDTH 8 0
BBX 8 16 0 -2
BITMAP
00
00
04
04
00
20
20
00
24
24
00
24
24
00
00
00
ENDCHAR
STARTCHAR uni28EF
ENCODING 10479
SWIDTH 500 0
DWIDTH 8 0
BBX 8 16 0 -2
BITMAP
00
00
24
24
00
20
20
00
24
24
00
24
24
00
00
00
ENDCHAR
STARTCHAR uni28F0
ENCODING 10480
SWIDTH 500 0
DWIDTH 8 0
BBX 8 16 0 -2
BITMAP
00
00
00
00
00
04
04
00
04
04
00
24
24
00
00
00
ENDCHAR
STARTCHAR uni28F1
ENCODING 10481
SWIDTH 500 0
DWIDTH 8 0
BBX 8 16 0 -2
BITMAP
00
00
20
20
00
04
04
00
04
04
00
24
24
00
00
00
ENDCHAR
STARTCHAR uni28F2
ENCODING 10482
SWIDTH 500 0
DWIDTH 8 0
BBX 8 16 0 -2
BITMAP
00
00
00
00
00
24
24
00
04
04
00
24
24
00
00
00
ENDCHAR
STARTCHAR uni28F3
ENCODING 10483
SWIDTH 500 0
DWIDTH 8 0
BBX 8 16 0 -2
BITMAP
00
00
20
20
00
24
24
00
04
04
00
24
24
00
00
00
ENDCHAR
STARTCHAR uni28F4
ENCODING 10484
SWIDTH 500 0
DWIDTH 8 0
BBX 8 16 0 -2
BITMAP
00
00
00
00
00
04
04
00
24
24
00
24
24
00
00
00
ENDCHAR
STARTCHAR uni28F5
ENCODING 10485
SWIDTH 500 0
DWIDTH 8 0
BBX 8 16 0 -2
BITMAP
00
00
20
20
00
04
04
00
24
24
00
24
24
00
00
00
ENDCHAR
STARTCHAR uni28F6
ENCODING 10486
SWIDTH 500 0
DWIDTH 8 0
BBX 8 16 0 -2
BITMAP
00
00
00
00
00
24
24
00
24
24
00
24
24
00
00
00
ENDCHAR
STARTCHAR uni28F7
ENCODING 10487
SWIDTH 500 0
DWIDTH 8 0
BBX 8 16 0 -2
BITMAP
00
00
20
20
00
24
24
00
24
24
00
24
24
00
00
00
ENDCHAR
STARTCHAR uni28F8
ENCODING 10488
SWIDTH 500 0
DWIDTH 8 0
BBX 8 16 0 -2
BITMAP
00
00
04
04
00
04
04
00
04
04
00
24
24
00
00
00
ENDCHAR
STARTCHAR uni28F9
ENCODING 10489
SWIDTH 500 0
DWIDTH 8 0
BBX 8 16 0 -2
BITMAP
00
00
24
24
00
04
04
00
04
04
00
24
24
00
00
00
ENDCHAR
STARTCHAR uni28FA
ENCODING 10490
SWIDTH 500 0
DWIDTH 8 0
BBX 8 16 0 -2
BITMAP
00
00
04
04
00
24
24
00
04
04
00
24
24
00
00
00
ENDCHAR
STARTCHAR uni28FB
ENCODING 10491
SWIDTH 500 0
DWIDTH 8 0
BBX 8 16 0 -2
BITMAP
00
00
24
24
00
24
24
00
04
04
00
24
24
00
00
00
ENDCHAR
STARTCHAR uni28FC
ENCODING 10492
SWIDTH 500 0
DWIDTH 8 0
BBX 8 16 0 -2
BITMAP
00
00
04
04
00
04
04
00
24
24
00
24
24
00
00
00
ENDCHAR
STARTCHAR uni28FD
ENCODING 10493
SWIDTH 500 0
DWIDTH 8 0
BBX 8 16 0 -2
BITMAP
00
00
24
24
00
04
04
00
24
24
00
24
24
00
00
00
ENDCHAR
STARTCHAR uni28FE
ENCODING 10494
SWIDTH 500 0
DWIDTH 8 0
BBX 8 16 0 -2
BITMAP
00
00
04
04
00
24
24
00
24
24
00
24
24
00
00
00
ENDCHAR
STARTCHAR uni28FF
ENCODING 10495
SWIDTH 500 0
DWIDTH 8 0
BBX 8 16 0 -2
BITMAP
00
00
24
24
00
24
24
00
24
24
00
24
24
00
00
00
ENDCHAR
STARTCHAR uniE0B0
ENCODING 57520
SWIDTH 500 0
DWIDTH 8 0
BBX 8 16 0 -2
BITMAP
80
C0
E0
F0
F8
FC
FE
FF
FF
FE
FC
F8
F0
E0
C0
80
ENDCHAR
STARTCHAR uniE0B1
ENCODING 57521
SWIDTH 500 0
DWIDTH 8 0
BBX 8 16 0 -2
BITMAP
80
40
20
10
08
04
02
01
01
02
04
08
10
20
40
80
ENDCHAR
STARTCHAR uniE0B2
ENCODING 57522
SWIDTH 500 0
DWIDTH 8 0
BBX 8 16 0 -2
BITMAP
01
03
07
0F
1F
3F
7F
FF
FF
7F
3F
1F
0F
07
03
01
ENDCHAR
STARTCHAR uniE0B3
ENCODING 57523
SWIDTH 500 0
DWIDTH 8 0
BBX 8 16 0 -2
BITMAP
01
02
04
08
10
20
40
80
80
40
20
10
08
04
02
01
ENDCHAR
ENDFONT
